<?xml version="1.0" encoding="UTF-8" standalone="no"?>
<!DOCTYPE svg PUBLIC "-//W3C//DTD SVG 1.1//EN" "http://www.w3.org/Graphics/SVG/1.1/DTD/svg11.dtd">
<svg xmlns="http://www.w3.org/2000/svg" version="1.1" viewBox="0.00 0.00 90.00 86.00">
<g stroke-width="2.00" fill="none" stroke-linecap="butt">
<path stroke="#010000" stroke-opacity="0.714" vector-effect="non-scaling-stroke" d="
  M 90.00 0.97
  L 0.00 0.99"
/>
<path stroke="#000000" stroke-opacity="0.776" vector-effect="non-scaling-stroke" d="
  M 90.00 85.09
  Q 21.07 85.15 0.94 85.05
  Q 0.58 85.05 0.00 84.43"
/>
</g>
<path fill="#020000" fill-opacity="0.424" d="
  M 0.00 0.00
  L 90.00 0.00
  L 90.00 0.97
  L 0.00 0.99
  L 0.00 0.00
  Z"
/>
<path fill="#000000" d="
  M 90.00 0.97
  L 90.00 85.09
  Q 21.07 85.15 0.94 85.05
  Q 0.58 85.05 0.00 84.43
  L 0.00 0.99
  L 90.00 0.97
  Z"
/>
<path fill="#890001" d="
  M 27.05 22.11
  A 1.82 1.82 0.0 0 0 30.02 22.28
  C 37.62 12.72 52.36 14.29 59.85 22.97
  Q 60.19 23.36 60.64 23.13
  C 62.46 22.19 63.26 21.22 63.16 19.00
  C 62.85 12.16 71.46 10.19 73.63 16.88
  A 1.11 1.10 -89.6 0 0 74.31 17.58
  C 79.12 19.23 78.97 25.34 74.87 27.32
  Q 73.92 27.77 71.42 27.69
  Q 67.58 27.57 65.64 31.36
  Q 65.42 31.78 65.90 31.78
  Q 68.25 31.74 70.49 31.72
  C 73.24 31.70 73.87 35.83 71.59 37.12
  C 70.16 37.93 66.32 37.45 64.48 37.45
  A 0.75 0.75 0.0 0 0 63.75 38.04
  Q 62.31 44.59 57.31 49.03
  A 0.77 0.77 0.0 0 0 57.30 50.17
  L 63.56 56.02
  A 1.05 1.04 -28.0 0 0 64.46 56.29
  C 72.13 54.98 75.01 63.76 69.02 66.04
  Q 68.56 66.21 68.31 66.63
  Q 67.00 68.78 66.21 69.48
  C 61.93 73.27 55.91 69.20 57.66 63.83
  Q 57.79 63.42 57.49 63.11
  L 57.23 62.86
  Q 56.69 62.31 56.41 63.03
  Q 54.25 68.71 48.28 70.06
  Q 37.43 72.52 32.47 63.19
  A 0.83 0.83 0.0 0 0 30.95 63.86
  C 33.27 70.50 24.21 74.06 20.78 66.79
  Q 20.56 66.33 20.10 66.13
  C 13.46 63.16 17.24 54.35 24.32 56.36
  Q 24.83 56.51 25.24 56.16
  L 31.31 50.88
  Q 32.67 49.69 31.37 48.43
  Q 27.11 44.33 25.86 38.58
  A 0.90 0.89 -1.4 0 0 25.13 37.89
  Q 23.08 37.55 20.50 37.78
  C 15.10 38.27 15.22 30.93 21.04 31.77
  Q 24.96 32.34 22.03 29.69
  C 21.28 29.00 19.53 26.58 17.85 27.49
  Q 17.45 27.71 16.99 27.74
  C 12.47 27.98 10.08 23.75 11.87 19.73
  A 1.75 1.69 -5.4 0 1 12.47 19.03
  C 15.13 17.25 16.14 14.19 18.61 13.09
  C 22.55 11.33 26.85 15.00 25.76 19.29
  Q 25.63 19.81 25.91 20.27
  L 27.05 22.11
  Z"
/>
<g stroke-width="2.00" fill="none" stroke-linecap="butt">
<path stroke="#7f7f7f" vector-effect="non-scaling-stroke" d="
  M 73.58 19.50
  L 72.17 19.19
  Q 71.73 19.10 71.74 18.64
  C 71.78 13.37 64.50 13.75 65.29 18.95
  A 1.72 1.68 -73.0 0 0 65.78 19.90
  L 66.05 20.18
  Q 66.48 20.60 66.04 21.02
  L 61.18 25.55
  A 0.74 0.72 57.0 0 0 61.01 26.38
  L 62.72 30.31
  Q 62.96 30.86 63.40 30.45
  L 69.26 24.95
  A 0.82 0.81 31.6 0 1 70.08 24.76
  Q 71.02 25.05 71.44 25.47"
/>
<path stroke="#806900" vector-effect="non-scaling-stroke" d="
  M 70.23 35.57
  Q 71.27 35.45 70.94 34.34
  A 0.82 0.82 0.0 0 0 70.17 33.75
  L 24.97 33.51"
/>
<path stroke="#7f7f7f" vector-effect="non-scaling-stroke" d="
  M 17.29 25.45
  L 18.85 24.63
  Q 19.32 24.38 19.72 24.75
  L 25.99 30.65
  A 0.37 0.37 0.0 0 0 26.59 30.51
  L 28.15 26.22
  A 0.60 0.58 -59.2 0 0 28.00 25.59
  L 23.18 21.13
  A 0.78 0.78 0.0 0 1 23.05 20.14
  C 25.88 15.64 19.71 12.06 17.24 17.42"
/>
<path stroke="#978282" vector-effect="non-scaling-stroke" d="
  M 15.55 25.55
  C 11.97 23.52 12.96 18.74 16.88 19.28
  A 0.51 0.50 -0.8 0 0 17.45 18.70
  L 17.24 17.42"
/>
<path stroke="#806900" vector-effect="non-scaling-stroke" d="
  M 63.19 35.75
  L 23.42 35.77"
/>
<path stroke="#7f7f7f" vector-effect="non-scaling-stroke" d="
  M 59.54 66.49
  C 61.22 70.27 66.44 69.38 65.99 64.97
  Q 65.94 64.46 66.45 64.46
  C 71.73 64.43 70.97 57.33 65.89 58.14
  Q 65.41 58.21 65.07 58.56
  L 64.42 59.20
  Q 64.09 59.54 63.75 59.21
  L 55.57 51.42
  A 0.28 0.28 0.0 0 0 55.10 51.68
  L 56.54 59.17
  A 0.69 0.68 -74.3 0 0 56.76 59.57
  L 60.03 62.51
  Q 60.47 62.90 60.27 63.45
  Q 59.98 64.24 59.37 64.80"
/>
<path stroke="#7f7f7f" vector-effect="non-scaling-stroke" d="
  M 52.12 66.39
  Q 55.10 62.81 55.24 58.82
  A 0.37 0.37 0.0 0 0 54.69 58.48
  C 47.25 62.63 41.65 61.68 34.44 58.11
  Q 33.86 57.82 33.88 58.47
  Q 34.16 66.86 42.37 68.55"
/>
<path stroke="#986b03" vector-effect="non-scaling-stroke" d="
  M 19.25 33.76
  Q 18.54 33.91 18.78 35.30"
/>
</g>
<path fill="#000000" d="
  M 73.58 19.50
  L 72.17 19.19
  Q 71.73 19.10 71.74 18.64
  C 71.78 13.37 64.50 13.75 65.29 18.95
  A 1.72 1.68 -73.0 0 0 65.78 19.90
  L 66.05 20.18
  Q 66.48 20.60 66.04 21.02
  L 61.18 25.55
  A 0.74 0.72 57.0 0 0 61.01 26.38
  L 62.72 30.31
  Q 62.96 30.86 63.40 30.45
  L 69.26 24.95
  A 0.82 0.81 31.6 0 1 70.08 24.76
  Q 71.02 25.05 71.44 25.47
  Q 67.37 27.66 63.17 32.09
  A 0.39 0.39 0.0 0 0 63.33 32.73
  Q 66.87 33.95 70.48 33.13
  A 1.47 1.47 0.0 0 1 72.11 35.23
  Q 71.53 36.37 70.23 35.57
  Q 71.27 35.45 70.94 34.34
  A 0.82 0.82 0.0 0 0 70.17 33.75
  L 24.97 33.51
  Q 25.71 33.32 26.05 32.92
  Q 26.35 32.56 26.04 32.19
  Q 21.97 27.33 17.29 25.45
  L 18.85 24.63
  Q 19.32 24.38 19.72 24.75
  L 25.99 30.65
  A 0.37 0.37 0.0 0 0 26.59 30.51
  L 28.15 26.22
  A 0.60 0.58 -59.2 0 0 28.00 25.59
  L 23.18 21.13
  A 0.78 0.78 0.0 0 1 23.05 20.14
  C 25.88 15.64 19.71 12.06 17.24 17.42
  C 16.47 12.66 24.77 12.25 24.67 18.25
  Q 24.66 18.70 24.37 19.05
  C 23.75 19.79 23.87 20.58 24.56 21.28
  Q 26.44 23.18 28.56 24.79
  Q 29.01 25.14 29.34 24.68
  C 37.08 13.79 52.09 14.29 59.82 24.84
  A 0.52 0.51 -39.4 0 0 60.59 24.91
  L 64.92 20.86
  Q 65.29 20.51 64.96 20.12
  C 61.59 16.22 70.73 9.13 73.58 19.50
  Z"
/>
<path fill="#fefefe" d="
  M 17.29 25.45
  L 15.55 25.55
  C 11.97 23.52 12.96 18.74 16.88 19.28
  A 0.51 0.50 -0.8 0 0 17.45 18.70
  L 17.24 17.42
  C 19.71 12.06 25.88 15.64 23.05 20.14
  A 0.78 0.78 0.0 0 0 23.18 21.13
  L 28.00 25.59
  A 0.60 0.58 -59.2 0 1 28.15 26.22
  L 26.59 30.51
  A 0.37 0.37 0.0 0 1 25.99 30.65
  L 19.72 24.75
  Q 19.32 24.38 18.85 24.63
  L 17.29 25.45
  Z"
/>
<path fill="#fefefe" d="
  M 73.58 19.50
  C 77.68 21.43 75.42 26.85 71.44 25.47
  Q 71.02 25.05 70.08 24.76
  A 0.82 0.81 31.6 0 0 69.26 24.95
  L 63.40 30.45
  Q 62.96 30.86 62.72 30.31
  L 61.01 26.38
  A 0.74 0.72 57.0 0 1 61.18 25.55
  L 66.04 21.02
  Q 66.48 20.60 66.05 20.18
  L 65.78 19.90
  A 1.72 1.68 -73.0 0 1 65.29 18.95
  C 64.50 13.75 71.78 13.37 71.74 18.64
  Q 71.73 19.10 72.17 19.19
  L 73.58 19.50
  Z"
/>
<path fill="#300505" d="
  M 17.24 17.42
  L 17.45 18.70
  A 0.51 0.50 -0.8 0 1 16.88 19.28
  C 12.96 18.74 11.97 23.52 15.55 25.55
  C 12.34 25.62 10.93 22.45 13.03 20.03
  Q 14.65 18.17 17.24 17.42
  Z"
/>
<path fill="#ffd100" d="
  M 53.93 22.91
  L 53.79 23.16
  Q 53.73 23.25 53.79 23.34
  L 55.87 26.47
  Q 56.39 27.25 55.45 27.25
  L 29.80 27.27
  Q 29.15 27.27 29.46 26.70
  C 36.08 14.51 52.87 14.73 59.83 26.63
  A 0.41 0.41 0.0 0 1 59.47 27.25
  L 57.21 27.25
  Q 56.62 27.25 56.53 26.66
  Q 56.18 24.32 54.32 22.84
  A 0.27 0.26 34.0 0 0 53.93 22.91
  Z"
/>
<path fill="#000000" d="
  M 34.94 22.94
  Q 35.00 22.41 35.63 22.18
  A 0.43 0.43 0.0 0 1 36.11 22.86
  L 33.49 25.99
  A 0.31 0.31 0.0 0 1 32.96 25.70
  Q 33.54 23.96 34.94 22.94
  Z"
/>
<path fill="#000000" d="
  M 38.15 23.92
  L 36.42 26.66
  Q 35.89 27.50 35.91 26.50
  Q 35.94 24.54 37.69 23.46
  A 0.34 0.33 0.1 0 1 38.15 23.92
  Z"
/>
<path fill="#000000" d="
  M 40.27 24.76
  A 0.44 0.44 0.0 0 1 40.25 25.30
  L 39.84 25.80
  A 0.55 0.55 0.0 0 1 38.89 25.28
  Q 39.44 23.61 40.27 24.76
  Z"
/>
<ellipse fill="#000000" cx="0.00" cy="0.00" transform="translate(52.03,25.45) rotate(65.0)" rx="1.38" ry="0.54"/>
<path fill="#fe0009" d="
  M 28.10 32.53
  A 0.47 0.47 0.0 0 1 27.63 32.06
  L 27.63 31.62
  A 3.37 2.30 89.9 0 1 29.93 28.25
  L 59.43 28.19
  A 3.37 2.30 89.9 0 1 61.73 31.56
  L 61.73 32.00
  A 0.47 0.47 0.0 0 1 61.26 32.47
  L 28.10 32.53
  Z"
/>
<path fill="#300505" d="
  M 19.25 33.76
  Q 18.54 33.91 18.78 35.30
  L 18.12 35.08
  Q 17.46 34.87 17.71 34.22
  L 18.11 33.19
  A 0.41 0.40 -72.6 0 1 18.58 32.94
  Q 19.33 33.10 19.25 33.76
  Z"
/>
<path fill="#ffd100" d="
  M 24.97 33.51
  L 70.17 33.75
  A 0.82 0.82 0.0 0 1 70.94 34.34
  Q 71.27 35.45 70.23 35.57
  L 63.19 35.75
  L 23.42 35.77
  Q 20.84 35.99 18.78 35.30
  Q 18.54 33.91 19.25 33.76
  L 24.97 33.51
  Z"
/>
<path fill="#000000" d="
  M 23.42 35.77
  L 63.19 35.75
  Q 61.57 43.72 55.56 49.17
  Q 55.17 49.52 55.53 49.89
  L 63.24 57.87
  A 1.19 1.19 0.0 0 0 65.10 57.68
  Q 65.93 56.37 67.82 57.14
  Q 72.21 58.91 70.32 63.43
  Q 70.16 63.83 69.78 64.03
  L 67.37 65.34
  Q 66.91 65.59 66.78 66.10
  Q 65.63 70.64 60.89 69.66
  Q 60.79 69.64 60.84 69.55
  L 61.00 69.28
  Q 61.03 69.22 60.97 69.20
  Q 58.79 68.42 59.54 66.49
  C 61.22 70.27 66.44 69.38 65.99 64.97
  Q 65.94 64.46 66.45 64.46
  C 71.73 64.43 70.97 57.33 65.89 58.14
  Q 65.41 58.21 65.07 58.56
  L 64.42 59.20
  Q 64.09 59.54 63.75 59.21
  L 55.57 51.42
  A 0.28 0.28 0.0 0 0 55.10 51.68
  L 56.54 59.17
  A 0.69 0.68 -74.3 0 0 56.76 59.57
  L 60.03 62.51
  Q 60.47 62.90 60.27 63.45
  Q 59.98 64.24 59.37 64.80
  Q 59.33 62.11 56.63 61.00
  Q 56.11 60.78 55.93 61.33
  Q 54.57 65.53 52.12 66.39
  Q 55.10 62.81 55.24 58.82
  A 0.37 0.37 0.0 0 0 54.69 58.48
  C 47.25 62.63 41.65 61.68 34.44 58.11
  Q 33.86 57.82 33.88 58.47
  Q 34.16 66.86 42.37 68.55
  Q 35.44 69.27 32.98 60.77
  Q 32.82 60.19 32.36 60.59
  L 30.11 62.55
  A 0.92 0.91 -27.1 0 0 29.82 63.44
  C 31.73 71.52 22.13 71.35 22.09 66.23
  Q 22.08 65.70 21.71 65.31
  Q 21.30 64.90 20.71 64.97
  Q 20.24 65.04 19.87 64.75
  C 15.53 61.42 19.30 55.28 24.24 57.67
  Q 24.69 57.88 25.05 57.56
  L 33.71 49.95
  Q 34.14 49.58 33.70 49.21
  Q 28.07 44.46 26.62 37.22
  Q 26.51 36.67 25.96 36.61
  Q 24.45 36.43 23.42 35.77
  Z"
/>
<path fill="#fefefe" d="
  M 61.41 36.48
  A 0.03 0.03 0.0 0 1 61.44 36.51
  L 61.44 36.57
  A 16.70 14.55 -0.1 0 1 44.76 51.15
  L 44.52 51.15
  A 16.70 14.55 -0.1 0 1 27.80 36.63
  L 27.80 36.57
  A 0.03 0.03 0.0 0 1 27.83 36.54
  L 61.41 36.48
  Z"
/>
<circle fill="#000000" cx="37.81" cy="42.20" r="4.60"/>
<circle fill="#000000" cx="51.53" cy="42.25" r="4.60"/>
<ellipse fill="#000000" cx="0.00" cy="0.00" transform="translate(44.69,48.11) rotate(5.1)" rx="1.76" ry="1.34"/>
<path fill="#fefefe" d="
  M 37.51 54.11
  Q 33.85 53.89 35.15 50.94
  Q 35.38 50.41 35.92 50.60
  L 38.56 51.49
  A 0.71 0.71 0.0 0 1 39.03 52.30
  L 38.88 53.05
  Q 38.66 54.18 37.51 54.11
  Z"
/>
<path fill="#fefefe" d="
  M 50.69 51.84
  Q 54.19 49.54 54.08 53.21
  Q 54.07 53.75 53.56 53.91
  L 50.80 54.81
  Q 50.00 55.07 50.00 54.24
  L 50.00 53.10
  A 1.50 1.49 73.8 0 1 50.69 51.84
  Z"
/>
<path fill="#fefefe" d="
  M 25.13 59.09
  L 33.23 51.51
  A 0.24 0.24 0.0 0 1 33.63 51.72
  L 32.71 58.43
  A 1.46 1.42 73.0 0 1 32.26 59.30
  L 28.58 62.71
  A 0.41 0.40 55.6 0 0 28.50 63.18
  L 29.21 64.63
  Q 29.44 65.10 29.38 65.62
  C 28.88 70.34 22.21 69.75 23.05 64.91
  A 0.57 0.57 0.0 0 0 22.49 64.25
  L 21.50 64.25
  A 1.37 1.31 -30.5 0 1 20.90 64.11
  C 16.01 61.76 20.55 55.33 24.52 59.08
  Q 24.83 59.37 25.13 59.09
  Z"
/>
<path fill="#fefefe" d="
  M 59.54 66.49
  L 59.37 64.80
  Q 59.98 64.24 60.27 63.45
  Q 60.47 62.90 60.03 62.51
  L 56.76 59.57
  A 0.69 0.68 -74.3 0 1 56.54 59.17
  L 55.10 51.68
  A 0.28 0.28 0.0 0 1 55.57 51.42
  L 63.75 59.21
  Q 64.09 59.54 64.42 59.20
  L 65.07 58.56
  Q 65.41 58.21 65.89 58.14
  C 70.97 57.33 71.73 64.43 66.45 64.46
  Q 65.94 64.46 65.99 64.97
  C 66.44 69.38 61.22 70.27 59.54 66.49
  Z"
/>
<path fill="#fefefe" d="
  M 39.48 54.91
  L 39.97 52.36
  A 0.36 0.36 0.0 0 1 40.35 52.07
  L 43.59 52.35
  A 0.36 0.36 0.0 0 1 43.92 52.66
  L 44.25 55.47
  A 0.36 0.36 0.0 0 1 43.85 55.87
  L 39.79 55.33
  A 0.36 0.36 0.0 0 1 39.48 54.91
  Z"
/>
<rect fill="#fefefe" x="-2.00" y="-1.71" transform="translate(46.99,53.96) rotate(-5.1)" width="4.00" height="3.42" rx="0.51"/>
<path fill="#fefefe" d="
  M 34.22 55.35
  Q 33.75 54.94 34.19 54.42
  Q 34.52 54.03 34.98 54.25
  L 37.88 55.66
  Q 38.36 55.90 38.29 56.44
  L 38.05 58.25
  Q 37.92 59.19 37.13 58.66
  L 34.13 56.62
  A 0.48 0.48 0.0 0 1 33.99 55.97
  L 34.25 55.53
  Q 34.31 55.42 34.22 55.35
  Z"
/>
<path fill="#fefefe" d="
  M 50.45 57.00
  Q 50.30 55.92 51.33 55.58
  L 53.51 54.89
  A 1.29 1.28 -70.1 0 1 54.59 57.20
  Q 53.14 58.13 51.34 58.84
  Q 50.74 59.08 50.65 58.44
  L 50.45 57.00
  Z"
/>
<rect fill="#fefefe" x="-2.61" y="-1.67" transform="translate(41.69,58.19) rotate(8.6)" width="5.22" height="3.34" rx="0.50"/>
<rect fill="#fefefe" x="-2.22" y="-1.70" transform="translate(47.34,58.19) rotate(-6.6)" width="4.44" height="3.40" rx="0.48"/>
<path fill="#fefefe" d="
  M 52.12 66.39
  Q 47.87 68.96 42.37 68.55
  Q 34.16 66.86 33.88 58.47
  Q 33.86 57.82 34.44 58.11
  C 41.65 61.68 47.25 62.63 54.69 58.48
  A 0.37 0.37 0.0 0 1 55.24 58.82
  Q 55.10 62.81 52.12 66.39
  Z"
/>
<path fill="#010101" fill-opacity="0.553" d="
  M 0.00 84.43
  Q 0.58 85.05 0.94 85.05
  Q 21.07 85.15 90.00 85.09
  L 90.00 86.00
  L 0.00 86.00
  L 0.00 84.43
  Z"
/>
</svg>
