<?xml version="1.0" encoding="UTF-8" standalone="no"?>
<!DOCTYPE svg PUBLIC "-//W3C//DTD SVG 1.1//EN" "http://www.w3.org/Graphics/SVG/1.1/DTD/svg11.dtd">
<svg xmlns="http://www.w3.org/2000/svg" version="1.1" viewBox="0.00 0.00 90.00 86.00">
<g stroke-width="2.00" fill="none" stroke-linecap="butt">
<path stroke="#000000" stroke-opacity="0.718" vector-effect="non-scaling-stroke" d="
  M 90.00 0.97
  L 0.00 0.99"
/>
<path stroke="#000000" stroke-opacity="0.776" vector-effect="non-scaling-stroke" d="
  M 90.00 85.10
  Q 45.53 85.16 1.06 85.00
  Q 0.72 85.00 0.49 84.83
  Q 0.24 84.66 0.00 84.44"
/>
</g>
<path fill="#010000" fill-opacity="0.431" d="
  M 0.00 0.00
  L 90.00 0.00
  L 90.00 0.97
  L 0.00 0.99
  L 0.00 0.00
  Z"
/>
<path fill="#000000" d="
  M 90.00 0.97
  L 90.00 85.10
  Q 45.53 85.16 1.06 85.00
  Q 0.72 85.00 0.49 84.83
  Q 0.24 84.66 0.00 84.44
  L 0.00 0.99
  L 90.00 0.97
  Z"
/>
<g stroke-width="2.00" fill="none" stroke-linecap="butt">
<path stroke="#80c381" vector-effect="non-scaling-stroke" d="
  M 28.27 28.95
  L 29.52 29.62"
/>
<path stroke="#7ead02" vector-effect="non-scaling-stroke" d="
  M 14.57 45.03
  L 14.68 48.23"
/>
<path stroke="#80c381" vector-effect="non-scaling-stroke" d="
  M 18.81 49.33
  Q 19.34 49.60 19.77 49.43"
/>
<path stroke="#80c381" vector-effect="non-scaling-stroke" d="
  M 23.71 49.60
  Q 23.87 49.59 24.02 49.57"
/>
</g>
<path fill="#028704" d="
  M 69.99 12.37
  L 59.19 23.19
  Q 58.77 23.62 58.39 23.15
  C 51.10 14.39 40.19 13.68 32.64 22.67
  A 0.88 0.87 42.5 0 1 31.35 22.72
  C 28.67 20.04 25.30 15.88 22.04 13.83
  Q 21.14 13.26 21.09 12.33
  A 0.58 0.58 0.0 0 1 22.07 11.89
  L 31.11 20.76
  A 1.13 1.13 0.0 0 0 32.65 20.80
  Q 45.69 9.06 58.32 21.16
  A 0.77 0.76 44.7 0 0 59.39 21.16
  Q 63.69 16.98 67.95 12.47
  Q 69.23 11.12 69.85 11.45
  Q 70.54 11.82 69.99 12.37
  Z"
/>
<path fill="#028704" d="
  M 28.27 28.95
  L 29.52 29.62
  L 29.26 29.76
  Q 29.09 29.84 29.10 30.04
  Q 29.49 36.51 32.43 42.25
  A 0.44 0.44 0.0 0 1 32.03 42.89
  L 15.14 42.67
  Q 14.21 42.66 14.35 43.59
  L 14.57 45.03
  L 14.68 48.23
  Q 14.09 48.75 14.14 49.39
  Q 14.18 49.96 14.75 49.88
  L 18.81 49.33
  Q 19.34 49.60 19.77 49.43
  Q 22.26 50.59 23.71 49.60
  Q 23.87 49.59 24.02 49.57
  L 20.45 53.44
  A 0.62 0.61 44.7 0 0 20.46 54.28
  L 23.65 57.51
  A 0.92 0.91 45.7 0 1 23.64 58.81
  L 19.10 63.23
  A 0.91 0.91 0.0 0 0 19.09 64.53
  L 22.61 68.07
  Q 23.56 69.03 24.49 68.05
  L 28.71 63.62
  Q 29.22 63.08 29.69 63.66
  L 32.33 66.96
  A 0.35 0.35 0.0 0 1 31.81 67.43
  L 30.19 65.81
  A 1.68 1.68 0.0 0 0 27.81 65.81
  L 24.54 69.09
  A 1.04 1.04 0.0 0 1 23.63 69.38
  C 21.20 68.99 15.83 65.46 18.68 62.40
  Q 20.41 60.55 22.23 58.94
  A 0.97 0.97 0.0 0 0 22.10 57.39
  Q 20.73 56.51 19.89 55.19
  Q 19.57 54.70 19.62 54.12
  L 19.76 52.25
  A 0.57 0.57 0.0 0 0 19.24 51.63
  L 14.36 51.22
  A 0.82 0.81 -15.4 0 1 13.76 50.88
  C 12.21 48.73 11.09 42.48 15.33 42.29
  Q 22.94 41.94 30.33 41.92
  A 0.49 0.49 0.0 0 0 30.74 41.18
  Q 28.68 37.80 28.25 33.76
  Q 28.03 31.69 27.39 31.11
  C 22.08 26.26 16.43 20.32 18.52 12.25
  A 0.78 0.78 0.0 0 1 20.05 12.52
  Q 19.93 13.76 19.26 14.70
  Q 18.94 15.15 18.97 15.70
  C 19.34 21.35 23.44 26.22 28.27 28.95
  Z"
/>
<path fill="#028704" d="
  M 61.71 30.83
  C 66.03 26.32 74.32 19.86 71.11 12.49
  Q 70.93 12.06 71.39 12.00
  Q 71.94 11.94 72.21 12.58
  C 75.06 19.33 67.71 27.43 62.80 31.32
  A 1.16 1.16 0.0 0 0 62.36 32.21
  Q 62.32 37.02 59.99 41.22
  A 0.52 0.52 0.0 0 0 60.44 41.99
  Q 67.38 42.01 74.50 42.00
  Q 76.52 41.99 76.93 42.36
  C 80.69 45.74 73.41 50.65 70.61 51.04
  Q 70.11 51.11 70.12 50.60
  Q 70.12 50.10 70.50 50.02
  Q 75.26 49.03 76.99 44.51
  Q 77.70 42.66 75.72 42.68
  L 58.24 42.91
  A 0.41 0.41 0.0 0 1 57.92 42.24
  Q 61.70 37.62 61.40 31.66
  Q 61.37 31.18 61.71 30.83
  Z"
/>
<path fill="#fefefe" d="
  M 29.52 29.62
  L 28.27 28.95
  C 24.34 24.46 18.75 20.68 20.28 13.78
  A 0.40 0.39 -61.2 0 1 20.95 13.58
  L 21.39 14.01
  Q 21.76 14.39 21.74 14.92
  C 21.54 20.23 25.47 23.40 29.37 27.25
  A 1.27 1.26 -69.9 0 1 29.75 28.08
  Q 29.82 29.00 29.52 29.62
  Z"
/>
<path fill="#fefefe" d="
  M 68.73 18.21
  C 69.47 16.64 69.01 15.43 69.44 13.87
  A 0.71 0.71 0.0 0 1 70.82 13.93
  C 71.93 20.27 65.85 25.71 61.55 29.45
  Q 61.12 29.82 61.02 29.26
  C 60.87 28.44 61.15 27.53 61.85 26.96
  Q 66.28 23.33 68.73 18.21
  Z"
/>
<path fill="#fefefe" d="
  M 46.09 34.14
  Q 46.62 34.22 46.78 34.73
  C 48.78 41.06 55.90 40.50 57.58 34.51
  A 0.70 0.69 7.7 0 1 58.25 34.00
  L 59.73 34.00
  A 0.55 0.54 -83.6 0 1 60.26 34.67
  C 56.72 50.37 32.31 50.67 30.76 35.08
  A 1.13 1.13 0.0 0 1 32.92 34.54
  C 35.62 41.09 41.71 40.59 43.97 34.48
  Q 44.20 33.86 44.86 33.96
  L 46.09 34.14
  Z"
/>
<circle fill="#000000" cx="45.27" cy="41.79" r="1.59"/>
<path fill="#f9d300" d="
  M 14.68 48.23
  L 14.57 45.03
  Q 14.95 43.75 16.17 44.01
  Q 16.80 44.14 16.78 44.79
  L 16.65 48.52
  Q 16.63 49.26 15.89 49.27
  Q 14.92 49.28 14.68 48.23
  Z"
/>
<path fill="#fefefe" d="
  M 18.58 45.79
  A 0.19 0.19 0.0 0 1 18.30 45.74
  L 17.75 44.80
  A 0.53 0.53 0.0 0 1 18.21 44.00
  L 19.82 44.00
  Q 20.88 44.00 20.04 44.65
  L 18.58 45.79
  Z"
/>
<path fill="#fefefe" d="
  M 23.57 44.33
  Q 23.41 44.00 23.78 44.00
  L 25.78 44.00
  A 0.60 0.59 28.2 0 1 26.11 45.09
  Q 24.49 46.16 23.57 44.33
  Z"
/>
<path fill="#fefefe" d="
  M 32.80 44.58
  L 31.94 45.63
  Q 31.42 46.27 30.92 45.61
  L 30.03 44.45
  Q 29.69 44.00 30.26 44.00
  L 32.52 44.00
  Q 33.27 44.00 32.80 44.58
  Z"
/>
<path fill="#fefefe" d="
  M 75.32 44.11
  A 0.68 0.68 0.0 0 1 75.79 45.10
  C 72.32 51.44 61.23 49.57 55.29 49.51
  A 0.68 0.67 -77.9 0 1 54.68 48.56
  Q 55.05 47.70 56.51 47.78
  C 63.14 48.12 70.21 49.22 73.31 44.92
  C 73.85 44.17 74.48 43.95 75.32 44.11
  Z"
/>
<rect fill="#fefefe" x="-1.81" y="-1.80" transform="translate(28.35,46.67) rotate(44.7)" width="3.62" height="3.60" rx="0.60"/>
<rect fill="#fefefe" x="-1.73" y="-1.76" transform="translate(21.89,46.71) rotate(-44.3)" width="3.46" height="3.52" rx="0.84"/>
<path fill="#fefefe" d="
  M 36.01 45.64
  Q 36.36 45.88 36.58 46.33
  A 0.62 0.62 0.0 0 1 36.54 46.95
  L 35.32 48.90
  Q 34.91 49.54 34.38 49.01
  L 32.56 47.19
  Q 32.13 46.75 32.56 46.31
  L 33.56 45.31
  Q 33.88 45.00 34.29 44.84
  Q 34.90 44.62 35.19 45.07
  Q 35.20 45.08 36.01 45.64
  Z"
/>
<rect fill="#fefefe" x="-1.55" y="-1.36" transform="translate(51.70,47.97) rotate(-11.1)" width="3.10" height="2.72" rx="0.43"/>
<path fill="#fefefe" d="
  M 40.16 49.31
  A 0.30 0.30 0.0 0 1 39.78 49.52
  L 38.11 49.04
  A 1.16 1.08 -73.9 0 1 37.40 47.62
  L 37.49 47.31
  A 1.16 1.08 -73.9 0 1 38.84 46.50
  L 40.52 46.98
  A 0.30 0.30 0.0 0 1 40.72 47.35
  L 40.16 49.31
  Z"
/>
<path fill="#fefefe" d="
  M 41.35 47.67
  A 0.51 0.51 0.0 0 1 41.92 47.23
  L 44.10 47.52
  A 0.89 0.86 7.6 0 1 44.87 48.49
  L 44.74 49.52
  A 0.89 0.86 7.6 0 1 43.74 50.26
  L 41.56 49.97
  A 0.51 0.51 0.0 0 1 41.12 49.39
  L 41.35 47.67
  Z"
/>
<rect fill="#fefefe" x="-1.71" y="-1.39" transform="translate(47.45,48.81) rotate(-5.3)" width="3.42" height="2.78" rx="0.56"/>
<path fill="#fefefe" d="
  M 30.25 48.66
  L 30.91 47.70
  Q 31.34 47.08 31.83 47.65
  L 32.85 48.84
  Q 33.41 49.50 32.55 49.50
  L 30.69 49.50
  A 0.54 0.53 -72.8 0 1 30.25 48.66
  Z"
/>
<path fill="#fefefe" d="
  M 19.77 49.43
  Q 19.34 49.60 18.81 49.33
  Q 18.07 49.29 17.87 49.02
  A 0.85 0.84 -34.6 0 1 18.10 47.81
  Q 18.38 47.63 18.93 47.86
  Q 20.44 48.51 19.77 49.43
  Z"
/>
<path fill="#fefefe" d="
  M 24.02 49.57
  Q 23.87 49.59 23.71 49.60
  Q 24.07 46.93 26.09 48.07
  A 0.63 0.62 54.4 0 1 25.90 49.23
  L 24.02 49.57
  Z"
/>
<path fill="#fefefe" d="
  M 39.49 50.46
  A 1.14 1.14 0.0 0 1 39.06 52.70
  Q 38.04 52.58 36.80 51.42
  A 0.87 0.87 0.0 0 1 37.62 49.94
  L 39.49 50.46
  Z"
/>
<path fill="#01dc02" d="
  M 26.57 52.11
  Q 26.01 51.76 25.86 51.23
  A 0.69 0.69 0.0 0 1 26.53 50.35
  L 30.52 50.35
  A 0.42 0.41 22.9 0 1 30.81 51.06
  L 28.69 53.18
  Q 28.29 53.58 27.86 53.22
  C 27.40 52.83 27.12 52.46 26.57 52.11
  Z"
/>
<path fill="#fefefe" d="
  M 51.16 52.99
  A 0.28 0.28 0.0 0 1 50.79 52.84
  L 50.53 52.22
  A 1.52 1.31 -22.6 0 1 51.43 50.43
  L 51.82 50.27
  A 1.52 1.31 -22.6 0 1 53.73 50.89
  L 53.98 51.51
  A 0.28 0.28 0.0 0 1 53.83 51.88
  L 51.16 52.99
  Z"
/>
<rect fill="#fefefe" x="-1.90" y="-1.24" transform="translate(42.87,52.32) rotate(7.4)" width="3.80" height="2.48" rx="0.46"/>
<path fill="#01dc02" d="
  M 63.09 53.00
  Q 62.94 53.23 62.75 53.41
  Q 62.47 53.68 62.19 53.42
  L 60.20 51.53
  A 0.45 0.45 0.0 0 1 60.51 50.75
  L 64.25 50.75
  Q 65.03 50.75 64.64 51.42
  Q 64.29 52.03 63.76 52.36
  Q 63.35 52.60 63.09 53.00
  Z"
/>
<path fill="#01dc02" d="
  M 68.41 50.72
  Q 69.55 51.09 69.50 52.42
  Q 69.48 53.04 69.02 52.63
  L 67.89 51.63
  A 0.54 0.54 0.0 0 1 68.41 50.72
  Z"
/>
<path fill="#fefefe" d="
  M 46.35 53.67
  A 0.45 0.45 0.0 0 1 45.85 53.27
  L 45.76 52.42
  A 1.08 0.78 83.6 0 1 46.41 51.26
  L 48.66 51.01
  A 1.08 0.78 83.6 0 1 49.56 52.00
  L 49.65 52.84
  A 0.45 0.45 0.0 0 1 49.25 53.34
  L 46.35 53.67
  Z"
/>
<rect fill="#f9d300" x="-1.93" y="-8.12" transform="translate(28.77,58.62) rotate(-44.7)" width="3.86" height="16.24" rx="0.70"/>
<rect fill="#f9d300" x="-1.96" y="-8.07" transform="translate(61.80,58.61) rotate(44.8)" width="3.92" height="16.14" rx="0.61"/>
<path fill="#fefefe" d="
  M 37.50 53.20
  C 42.40 55.07 48.02 54.84 52.90 53.55
  A 0.62 0.62 0.0 0 1 53.60 54.45
  C 49.60 61.78 39.77 62.40 36.96 53.72
  A 0.42 0.41 -88.4 0 1 37.50 53.20
  Z"
/>
<path fill="#fefefe" d="
  M 31.74 57.31
  A 0.27 0.27 0.0 0 1 31.73 56.93
  L 34.27 54.31
  A 1.86 0.74 -45.9 0 1 36.10 53.49
  L 36.30 53.68
  A 1.86 0.74 -45.9 0 1 35.54 55.53
  L 33.00 58.15
  A 0.27 0.27 0.0 0 1 32.62 58.16
  L 31.74 57.31
  Z"
/>
<path fill="#fefefe" d="
  M 58.81 56.95
  A 0.97 0.79 5.0 0 1 57.34 57.95
  Q 55.80 56.51 54.51 55.04
  A 0.98 0.75 84.6 0 1 55.44 53.56
  L 58.81 56.95
  Z"
/>
<path fill="#028704" d="
  M 66.41 68.19
  A 1.14 1.13 -37.0 0 0 67.81 68.38
  Q 70.44 66.84 71.70 64.05
  Q 71.94 63.54 71.54 63.14
  L 66.92 58.52
  Q 66.46 58.06 66.94 57.62
  L 69.87 54.93
  Q 70.73 54.15 70.26 55.21
  Q 69.56 56.78 68.14 57.75
  A 0.50 0.49 -39.0 0 0 68.06 58.50
  L 72.42 63.11
  A 0.86 0.85 33.7 0 1 72.60 64.00
  C 71.67 66.51 68.03 71.75 65.03 68.46
  Q 63.46 66.73 61.65 65.15
  Q 61.18 64.74 60.74 65.18
  L 58.56 67.36
  A 1.10 1.08 31.4 0 1 57.45 67.62
  Q 54.52 66.62 52.84 63.95
  A 2.12 2.12 0.0 0 1 53.52 61.03
  Q 54.76 60.27 54.79 58.75
  A 0.90 0.89 66.1 0 0 53.22 58.14
  C 48.86 63.19 41.48 63.47 36.95 58.04
  A 0.81 0.81 0.0 0 0 35.58 58.26
  L 35.19 59.26
  Q 34.93 59.95 35.59 60.26
  C 39.80 62.26 36.24 65.68 34.28 67.25
  A 0.44 0.44 0.0 0 1 33.69 66.61
  L 36.24 63.90
  A 1.64 1.64 0.0 0 0 36.24 61.66
  L 34.08 59.36
  A 0.59 0.59 0.0 0 1 34.09 58.55
  L 36.10 56.50
  Q 36.58 56.01 37.06 56.50
  C 38.46 57.94 39.81 59.72 41.73 60.33
  Q 48.66 62.53 53.27 56.50
  Q 53.61 56.05 54.03 56.43
  L 56.48 58.63
  A 0.69 0.68 43.6 0 1 56.51 59.63
  L 53.57 62.61
  Q 53.26 62.91 53.58 63.21
  L 56.96 66.49
  Q 57.44 66.96 57.93 66.50
  L 61.10 63.55
  Q 61.55 63.13 61.97 63.57
  L 66.41 68.19
  Z"
/>
<rect fill="#f9d300" x="-2.68" y="-2.05" transform="translate(65.46,62.25) rotate(-44.1)" width="5.36" height="4.10" rx="0.54"/>
<rect fill="#f9d300" x="-2.61" y="-2.00" transform="translate(25.13,62.19) rotate(44.1)" width="5.22" height="4.00" rx="0.42"/>
<path fill="#f9d300" d="
  M 24.52 65.99
  A 0.43 0.43 0.0 0 1 24.53 66.60
  L 24.30 66.84
  A 1.83 1.46 44.5 0 1 21.97 66.60
  L 20.66 65.31
  A 1.83 1.46 44.5 0 1 20.37 62.98
  L 20.61 62.75
  A 0.43 0.43 0.0 0 1 21.21 62.74
  L 24.52 65.99
  Z"
/>
<rect fill="#f9d300" x="-1.16" y="-2.69" transform="translate(68.40,65.36) rotate(44.4)" width="2.32" height="5.38" rx="0.99"/>
<path fill="#010101" fill-opacity="0.553" d="
  M 0.00 84.44
  Q 0.24 84.66 0.49 84.83
  Q 0.72 85.00 1.06 85.00
  Q 45.53 85.16 90.00 85.10
  L 90.00 86.00
  L 0.00 86.00
  L 0.00 84.44
  Z"
/>
</svg>
