<?xml version="1.0" encoding="UTF-8" standalone="no"?>
<!DOCTYPE svg PUBLIC "-//W3C//DTD SVG 1.1//EN" "http://www.w3.org/Graphics/SVG/1.1/DTD/svg11.dtd">
<svg xmlns="http://www.w3.org/2000/svg" version="1.1" viewBox="0.00 0.00 90.00 86.00">
<g stroke-width="2.00" fill="none" stroke-linecap="butt">
<path stroke="#010000" stroke-opacity="0.714" vector-effect="non-scaling-stroke" d="
  M 90.00 0.97
  L 0.00 0.99"
/>
<path stroke="#000000" stroke-opacity="0.776" vector-effect="non-scaling-stroke" d="
  M 90.00 85.10
  L 1.16 85.02
  A 1.30 1.28 -24.3 0 1 0.32 84.71
  L 0.00 84.44"
/>
</g>
<path fill="#020000" fill-opacity="0.427" d="
  M 0.00 0.00
  L 90.00 0.00
  L 90.00 0.97
  L 0.00 0.99
  L 0.00 0.00
  Z"
/>
<path fill="#000000" d="
  M 90.00 0.97
  L 90.00 85.10
  L 1.16 85.02
  A 1.30 1.28 -24.3 0 1 0.32 84.71
  L 0.00 84.44
  L 0.00 0.99
  L 90.00 0.97
  Z"
/>
<path fill="#03026d" d="
  M 61.16 35.07
  A 0.35 0.35 0.0 0 0 60.70 35.52
  Q 64.09 43.99 60.20 50.76
  Q 59.45 52.08 60.87 53.16
  C 64.00 55.55 66.98 58.42 69.93 61.04
  Q 70.30 61.37 70.37 61.86
  Q 70.70 64.40 68.62 65.94
  A 1.83 1.82 -43.4 0 1 66.37 65.88
  L 55.63 57.11
  A 0.61 0.61 0.0 0 0 54.65 57.72
  C 59.71 80.68 27.33 74.79 35.43 58.32
  A 1.06 1.06 0.0 0 0 33.81 57.04
  L 22.88 66.10
  A 1.21 1.18 -58.3 0 1 21.87 66.35
  C 19.41 65.81 16.62 62.46 19.54 60.21
  Q 23.88 56.85 28.62 52.60
  A 1.60 1.59 -33.7 0 0 29.00 50.72
  Q 26.47 45.41 27.05 39.52
  A 0.90 0.90 0.0 0 0 26.63 38.66
  Q 16.71 32.54 16.37 20.76
  A 2.04 2.04 0.0 0 1 18.49 18.67
  C 19.08 18.69 19.51 18.83 20.00 19.23
  Q 26.54 24.49 32.59 29.64
  A 1.48 1.47 38.7 0 0 34.72 29.41
  Q 35.53 28.35 35.03 27.27
  Q 34.81 26.79 34.30 26.66
  Q 29.54 25.37 29.65 20.91
  C 29.79 14.91 35.88 15.44 39.89 15.79
  Q 40.49 15.85 41.00 15.54
  Q 45.77 12.67 50.27 15.92
  A 0.93 0.92 52.7 0 0 51.13 16.04
  Q 56.89 13.89 59.00 19.31
  A 0.93 0.93 0.0 0 0 60.52 19.64
  C 61.71 18.48 65.04 15.58 66.93 16.20
  C 68.95 16.86 68.48 19.13 70.43 19.51
  C 71.97 19.81 72.81 21.06 73.01 22.57
  A 1.06 1.01 -79.3 0 0 73.50 23.32
  C 79.59 26.93 67.06 37.55 61.16 35.07
  Z"
/>
<g stroke-width="2.00" fill="none" stroke-linecap="butt">
<path stroke="#62697f" vector-effect="non-scaling-stroke" d="
  M 52.95 24.00
  Q 50.38 23.33 50.96 28.09
  Q 51.03 28.66 50.49 28.50
  Q 44.02 26.71 37.12 29.07"
/>
<path stroke="#83828b" vector-effect="non-scaling-stroke" d="
  M 57.44 34.80
  Q 51.09 27.79 42.05 29.18
  C 24.46 31.88 25.46 54.66 42.26 57.27
  Q 51.23 58.67 57.34 51.63"
/>
<path stroke="#62697f" vector-effect="non-scaling-stroke" d="
  M 57.72 52.91
  Q 56.46 53.59 55.70 54.88"
/>
<path stroke="#83828b" vector-effect="non-scaling-stroke" d="
  M 52.49 57.81
  Q 51.50 56.68 50.09 57.89
  A 1.08 1.08 0.0 0 0 50.89 59.79
  Q 52.13 59.68 52.56 58.28"
/>
<path stroke="#83828b" vector-effect="non-scaling-stroke" d="
  M 53.55 63.33
  Q 45.39 67.54 36.35 63.39"
/>
<path stroke="#83828b" vector-effect="non-scaling-stroke" d="
  M 36.77 62.41
  L 38.28 63.11
  A 1.10 1.10 0.0 0 0 39.41 61.23
  Q 38.35 60.43 36.52 60.49"
/>
<path stroke="#83828b" vector-effect="non-scaling-stroke" d="
  M 37.15 58.79
  Q 37.83 59.98 39.31 60.01
  Q 40.76 60.03 40.27 58.66
  Q 39.64 56.91 37.71 57.70"
/>
<path stroke="#62697f" vector-effect="non-scaling-stroke" d="
  M 33.59 54.55
  Q 32.47 53.11 31.29 52.87"
/>
<path stroke="#62697f" vector-effect="non-scaling-stroke" d="
  M 23.51 24.53
  L 32.02 31.97
  A 0.64 0.64 0.0 0 1 32.14 32.79
  L 29.43 37.11
  Q 29.09 37.67 28.52 37.34
  Q 23.49 34.37 20.20 29.31"
/>
<path stroke="#62697f" vector-effect="non-scaling-stroke" d="
  M 58.39 33.75
  Q 57.41 33.00 56.94 32.12
  Q 56.70 31.67 57.06 31.31
  L 58.07 30.31
  A 0.84 0.84 0.0 0 0 58.26 29.45
  Q 56.63 24.67 61.04 21.50"
/>
</g>
<path fill="#bccde6" d="
  M 52.95 24.00
  Q 50.38 23.33 50.96 28.09
  Q 51.03 28.66 50.49 28.50
  Q 44.02 26.71 37.12 29.07
  L 37.28 25.39
  Q 37.31 24.84 36.77 24.77
  C 33.36 24.33 30.39 23.73 32.12 19.14
  Q 32.31 18.63 32.81 18.41
  Q 36.61 16.70 40.19 18.94
  Q 40.62 19.21 40.95 18.82
  C 43.48 15.75 46.79 14.92 49.28 18.61
  Q 49.54 18.99 49.92 18.73
  C 57.63 13.43 59.39 24.79 52.95 24.00
  Z"
/>
<path fill="#bccde6" d="
  M 58.39 33.75
  Q 57.41 33.00 56.94 32.12
  Q 56.70 31.67 57.06 31.31
  L 58.07 30.31
  A 0.84 0.84 0.0 0 0 58.26 29.45
  Q 56.63 24.67 61.04 21.50
  L 65.87 18.07
  A 0.83 0.83 0.0 0 1 66.89 19.37
  L 60.76 24.65
  A 1.09 1.08 57.0 0 0 60.49 25.95
  Q 61.06 27.13 62.29 26.78
  C 64.06 26.26 67.78 22.55 69.50 21.27
  A 0.70 0.69 43.3 0 1 70.30 21.25
  Q 70.99 21.73 70.98 22.33
  Q 70.97 22.77 70.43 23.20
  Q 67.31 25.69 64.21 28.63
  A 1.10 1.10 0.0 0 0 64.92 30.52
  Q 65.88 30.56 66.88 29.64
  Q 69.60 27.15 72.34 25.39
  A 0.78 0.78 0.0 0 1 73.41 26.49
  C 71.12 29.80 65.23 35.91 60.96 32.40
  A 0.95 0.93 -33.1 0 0 60.10 32.23
  Q 58.95 32.57 58.39 33.75
  Z"
/>
<path fill="#bccde6" d="
  M 23.51 24.53
  L 32.02 31.97
  A 0.64 0.64 0.0 0 1 32.14 32.79
  L 29.43 37.11
  Q 29.09 37.67 28.52 37.34
  Q 23.49 34.37 20.20 29.31
  L 18.63 21.80
  Q 18.45 20.90 19.19 21.44
  L 23.51 24.53
  Z"
/>
<path fill="#070517" d="
  M 61.04 21.50
  Q 56.63 24.67 58.26 29.45
  A 0.84 0.84 0.0 0 1 58.07 30.31
  L 57.06 31.31
  Q 56.70 31.67 56.94 32.12
  Q 57.41 33.00 58.39 33.75
  L 57.44 34.80
  Q 51.09 27.79 42.05 29.18
  C 24.46 31.88 25.46 54.66 42.26 57.27
  Q 51.23 58.67 57.34 51.63
  Q 57.97 51.85 57.72 52.91
  Q 56.46 53.59 55.70 54.88
  Q 53.87 54.11 52.49 57.81
  Q 51.50 56.68 50.09 57.89
  A 1.08 1.08 0.0 0 0 50.89 59.79
  Q 52.13 59.68 52.56 58.28
  Q 53.42 58.11 53.66 58.35
  Q 53.67 58.36 53.85 59.17
  Q 54.42 61.74 53.55 63.33
  Q 45.39 67.54 36.35 63.39
  Q 36.63 63.61 36.77 62.41
  L 38.28 63.11
  A 1.10 1.10 0.0 0 0 39.41 61.23
  Q 38.35 60.43 36.52 60.49
  Q 36.37 59.35 37.15 58.79
  Q 37.83 59.98 39.31 60.01
  Q 40.76 60.03 40.27 58.66
  Q 39.64 56.91 37.71 57.70
  Q 36.11 55.60 33.59 54.55
  Q 32.47 53.11 31.29 52.87
  Q 30.71 50.53 29.23 48.84
  Q 28.89 48.47 28.99 47.97
  Q 29.24 46.64 28.36 45.72
  A 1.36 1.36 0.0 0 1 28.00 44.80
  L 28.00 41.52
  Q 28.00 41.07 28.31 40.75
  C 29.27 39.75 28.84 38.69 27.67 38.08
  Q 21.49 34.85 20.20 29.31
  Q 23.49 34.37 28.52 37.34
  Q 29.09 37.67 29.43 37.11
  L 32.14 32.79
  A 0.64 0.64 0.0 0 0 32.02 31.97
  L 23.51 24.53
  Q 28.45 27.18 32.56 31.39
  Q 32.99 31.83 33.51 31.49
  L 37.12 29.07
  Q 44.02 26.71 50.49 28.50
  Q 51.03 28.66 50.96 28.09
  Q 50.38 23.33 52.95 24.00
  Q 50.10 29.21 54.40 30.76
  Q 56.25 31.43 57.11 29.76
  Q 57.33 29.34 57.12 28.91
  C 55.64 25.94 58.08 21.78 61.04 21.50
  Z"
/>
<path fill="#000000" d="
  M 55.54 26.76
  Q 55.69 27.80 55.75 28.93
  A 0.91 0.91 0.0 0 1 54.21 29.63
  Q 53.21 28.65 53.00 27.11
  A 1.28 1.28 0.0 0 1 55.54 26.76
  Z"
/>
<path fill="#fefefe" d="
  M 57.44 34.80
  Q 63.40 42.89 57.34 51.63
  Q 51.23 58.67 42.26 57.27
  C 25.46 54.66 24.46 31.88 42.05 29.18
  Q 51.09 27.79 57.44 34.80
  Z"
/>
<path fill="#000000" d="
  M 35.95 33.50
  C 30.37 37.71 42.95 41.02 43.48 42.47
  A 0.23 0.23 0.0 0 1 43.20 42.77
  Q 38.19 41.37 34.88 37.76
  C 30.78 33.28 40.49 29.29 40.26 35.46
  A 1.86 1.85 85.3 0 1 38.78 37.22
  Q 37.30 37.52 36.36 36.17
  Q 35.99 35.64 36.44 35.18
  L 37.05 34.58
  Q 37.56 34.06 37.50 34.79
  Q 37.46 35.37 37.54 35.69
  A 0.97 0.80 42.0 0 0 39.30 35.77
  Q 39.26 34.77 38.75 33.99
  Q 37.61 32.25 35.95 33.50
  Z"
/>
<circle fill="#000000" cx="38.55" cy="47.58" r="4.83"/>
<circle fill="#000000" cx="51.25" cy="47.58" r="4.83"/>
<ellipse fill="#000000" cx="0.00" cy="0.00" transform="translate(44.95,53.27) rotate(88.0)" rx="1.24" ry="1.12"/>
<path fill="#bccde6" d="
  M 31.29 52.87
  Q 32.47 53.11 33.59 54.55
  Q 28.54 58.93 23.38 63.21
  C 22.07 64.30 20.94 64.18 20.16 62.70
  Q 19.93 62.26 20.31 61.95
  L 31.29 52.87
  Z"
/>
<path fill="#bccde6" d="
  M 57.72 52.91
  L 68.39 62.13
  Q 68.86 62.54 68.49 63.04
  L 67.85 63.94
  Q 67.47 64.47 66.96 64.05
  L 55.70 54.88
  Q 56.46 53.59 57.72 52.91
  Z"
/>
<path fill="#fefefe" d="
  M 52.49 57.81
  L 52.56 58.28
  Q 52.13 59.68 50.89 59.79
  A 1.08 1.08 0.0 0 1 50.09 57.89
  Q 51.50 56.68 52.49 57.81
  Z"
/>
<path fill="#fefefe" d="
  M 37.15 58.79
  L 37.71 57.70
  Q 39.64 56.91 40.27 58.66
  Q 40.76 60.03 39.31 60.01
  Q 37.83 59.98 37.15 58.79
  Z"
/>
<rect fill="#fefefe" x="-1.67" y="-1.30" transform="translate(42.81,59.61) rotate(8.9)" width="3.34" height="2.60" rx="0.42"/>
<rect fill="#fefefe" x="-1.70" y="-1.28" transform="translate(47.18,59.59) rotate(-6.7)" width="3.40" height="2.56" rx="0.47"/>
<path fill="#fefefe" d="
  M 53.21 61.52
  Q 51.96 63.16 51.31 63.18
  A 1.22 1.14 31.4 0 1 50.69 60.94
  L 52.30 60.31
  A 0.79 0.78 -82.0 0 1 53.21 61.52
  Z"
/>
<path fill="#fefefe" d="
  M 36.52 60.49
  Q 38.35 60.43 39.41 61.23
  A 1.10 1.10 0.0 0 1 38.28 63.11
  L 36.77 62.41
  L 36.52 60.49
  Z"
/>
<rect fill="#fefefe" x="-2.02" y="-1.21" transform="translate(42.46,63.01) rotate(7.0)" width="4.04" height="2.42" rx="0.73"/>
<rect fill="#fefefe" x="-1.95" y="-1.25" transform="translate(47.41,63.00) rotate(-9.3)" width="3.90" height="2.50" rx="0.53"/>
<path fill="#fefefe" d="
  M 36.35 63.39
  Q 45.39 67.54 53.55 63.33
  C 51.80 74.28 37.67 73.54 36.35 63.39
  Z"
/>
<path fill="#010101" fill-opacity="0.553" d="
  M 0.00 84.44
  L 0.32 84.71
  A 1.30 1.28 -24.3 0 0 1.16 85.02
  L 90.00 85.10
  L 90.00 86.00
  L 0.00 86.00
  L 0.00 84.44
  Z"
/>
</svg>
