<?xml version="1.0" encoding="UTF-8" standalone="no"?>
<!DOCTYPE svg PUBLIC "-//W3C//DTD SVG 1.1//EN" "http://www.w3.org/Graphics/SVG/1.1/DTD/svg11.dtd">
<svg xmlns="http://www.w3.org/2000/svg" version="1.1" viewBox="0.00 0.00 90.00 86.00">
<g stroke-width="2.00" fill="none" stroke-linecap="butt">
<path stroke="#000000" stroke-opacity="0.714" vector-effect="non-scaling-stroke" d="
  M 90.00 1.00
  L 0.00 1.00"
/>
<path stroke="#000000" stroke-opacity="0.776" vector-effect="non-scaling-stroke" d="
  M 90.00 85.10
  L 1.17 85.02
  A 1.33 1.32 64.8 0 1 0.32 84.71
  L 0.00 84.44"
/>
</g>
<path fill="#010000" fill-opacity="0.427" d="
  M 0.00 0.00
  L 90.00 0.00
  L 90.00 1.00
  L 0.00 1.00
  L 0.00 0.00
  Z"
/>
<path fill="#000000" d="
  M 0.00 1.00
  L 90.00 1.00
  L 90.00 85.10
  L 1.17 85.02
  A 1.33 1.32 64.8 0 1 0.32 84.71
  L 0.00 84.44
  L 0.00 1.00
  Z"
/>
<g stroke-width="2.00" fill="none" stroke-linecap="butt">
<path stroke="#924803" vector-effect="non-scaling-stroke" d="
  M 74.50 54.42
  Q 74.09 56.92 77.05 58.05
  Q 77.55 58.24 77.84 57.80
  Q 78.01 57.55 77.99 57.27"
/>
<path stroke="#bd9c0c" vector-effect="non-scaling-stroke" d="
  M 72.61 64.41
  Q 73.74 60.99 76.50 59.62
  A 0.57 0.57 0.0 0 0 76.51 58.61
  Q 73.65 57.14 72.85 54.30"
/>
<path stroke="#bd9c0c" vector-effect="non-scaling-stroke" d="
  M 72.42 54.38
  L 68.58 58.84
  Q 68.21 59.27 68.68 59.59
  Q 71.26 61.29 72.31 64.28"
/>
</g>
<path fill="#a65402" d="
  M 22.77 62.75
  C 20.88 63.11 18.95 63.75 17.24 63.74
  C 3.74 63.71 2.58 44.02 16.91 42.31
  A 0.71 0.71 0.0 0 0 17.49 41.35
  C 7.21 15.22 44.60 0.17 54.03 24.07
  A 0.34 0.34 0.0 0 0 54.67 24.03
  C 56.28 17.69 64.98 11.91 70.48 17.83
  Q 70.85 18.23 71.36 18.38
  Q 78.81 20.57 76.98 28.40
  A 1.95 1.95 0.0 0 0 78.14 30.64
  Q 82.82 32.56 83.95 37.48
  A 0.86 0.83 -36.8 0 1 83.85 38.09
  L 80.27 43.90
  A 0.76 0.73 7.1 0 1 79.84 44.22
  Q 77.58 44.86 75.71 46.46
  A 2.44 2.44 0.0 0 1 72.29 46.22
  C 68.34 41.70 64.77 36.88 58.14 41.22
  A 0.98 0.97 -49.1 0 0 58.26 42.92
  C 72.33 49.51 63.87 68.56 49.18 62.85
  A 0.93 0.92 22.8 0 0 48.00 63.33
  C 42.67 75.08 28.33 75.22 23.45 63.12
  Q 23.26 62.65 22.77 62.75
  Z"
/>
<g stroke-width="2.00" fill="none" stroke-linecap="butt">
<path stroke="#3f1e02" vector-effect="non-scaling-stroke" d="
  M 57.78 31.55
  Q 57.80 30.79 57.03 30.70"
/>
<path stroke="#3f1e02" vector-effect="non-scaling-stroke" d="
  M 57.02 32.51
  Q 57.15 31.47 56.49 31.19"
/>
</g>
<path fill="#000000" d="
  M 57.78 31.55
  Q 57.80 30.79 57.03 30.70
  C 55.87 27.14 55.26 22.63 57.90 19.64
  C 60.73 16.43 66.80 15.11 70.03 18.80
  Q 70.37 19.20 70.88 19.32
  Q 78.47 21.10 75.68 28.97
  A 1.41 1.41 0.0 0 0 76.50 30.76
  C 79.47 31.92 84.95 35.72 82.11 39.50
  Q 81.82 39.88 81.36 39.99
  Q 80.37 40.22 79.93 42.42
  Q 79.65 43.79 78.25 43.74
  Q 76.56 43.66 75.79 45.23
  A 1.47 1.45 28.3 0 1 73.73 45.84
  C 71.05 44.26 69.81 41.42 67.57 40.05
  Q 61.73 36.49 55.91 42.05
  Q 54.65 43.26 56.37 43.54
  C 70.13 45.79 64.71 67.93 49.99 62.12
  Q 49.52 61.94 49.21 61.55
  Q 48.86 61.11 48.31 60.99
  Q 47.77 60.87 47.54 61.38
  C 46.57 63.54 45.62 65.81 44.00 67.44
  C 36.77 74.71 26.96 69.96 24.00 61.34
  Q 23.82 60.80 23.31 61.07
  C 8.29 69.08 -0.48 45.40 18.62 42.99
  Q 19.27 42.91 19.02 42.31
  C 13.91 30.12 18.23 18.15 30.92 14.16
  Q 35.28 12.79 39.75 13.74
  Q 54.87 16.97 55.16 34.12
  Q 55.17 34.67 55.70 34.49
  L 58.77 33.40
  A 0.47 0.47 0.0 0 0 59.01 32.69
  Q 58.56 32.02 57.78 31.55
  Z"
/>
<path fill="#0169c1" d="
  M 25.94 18.27
  A 0.10 0.10 0.0 0 1 25.84 18.17
  L 25.84 18.14
  A 10.09 3.43 -0.2 0 1 35.91 14.67
  L 36.27 14.67
  A 10.09 3.43 -0.2 0 1 46.38 18.06
  L 46.38 18.09
  A 0.10 0.10 0.0 0 1 46.28 18.19
  L 25.94 18.27
  Z"
/>
<path fill="#ffffff" d="
  M 60.62 33.11
  C 53.41 26.45 57.59 14.50 67.94 18.20
  A 1.29 1.29 0.0 0 1 67.55 20.70
  C 66.00 20.74 64.43 20.53 63.04 21.31
  C 58.18 24.03 62.16 33.30 69.79 29.48
  C 73.22 27.76 70.88 24.19 69.70 22.06
  A 1.25 1.25 0.0 0 1 71.22 20.28
  C 76.35 22.17 76.00 25.87 74.33 30.15
  Q 74.13 30.65 74.63 30.85
  C 77.25 31.90 82.43 34.76 81.75 38.18
  A 1.01 1.01 0.0 0 1 80.12 38.76
  L 73.66 33.37
  Q 72.99 32.81 73.00 33.68
  Q 73.00 33.85 72.99 34.04
  Q 72.98 34.30 73.21 34.43
  Q 76.67 36.42 78.91 39.65
  C 79.84 40.98 79.67 42.46 78.01 42.92
  A 0.73 0.72 66.4 0 1 77.18 42.59
  Q 75.14 39.15 71.87 36.79
  Q 71.40 36.45 71.26 37.01
  Q 71.21 37.21 71.27 37.43
  Q 71.32 37.61 71.52 37.80
  Q 74.17 40.28 75.77 42.40
  A 1.61 1.61 0.0 0 1 73.35 44.52
  C 71.36 42.55 69.43 39.89 67.13 38.65
  C 61.72 35.73 57.40 39.04 53.84 43.07
  A 0.69 0.69 0.0 0 1 52.73 42.27
  Q 54.35 39.52 54.91 36.37
  Q 55.00 35.84 55.50 35.64
  L 60.54 33.58
  Q 60.95 33.42 60.62 33.11
  Z"
/>
<path fill="#ffffff" d="
  M 21.04 22.24
  L 23.37 19.34
  A 0.32 0.32 0.0 0 1 23.62 19.22
  L 48.51 19.32
  A 0.32 0.32 0.0 0 1 48.77 19.45
  L 50.90 22.26
  A 0.32 0.32 0.0 0 1 50.64 22.77
  L 21.29 22.76
  A 0.32 0.32 0.0 0 1 21.04 22.24
  Z"
/>
<path fill="#0169c1" d="
  M 52.11 24.27
  L 53.23 26.56
  A 0.48 0.48 0.0 0 1 52.80 27.25
  L 19.37 27.25
  A 0.48 0.48 0.0 0 1 18.93 26.58
  L 19.94 24.28
  A 0.48 0.48 0.0 0 1 20.38 23.99
  L 51.68 24.00
  A 0.48 0.48 0.0 0 1 52.11 24.27
  Z"
/>
<rect fill="#ffffff" x="18.08" y="28.48" width="35.84" height="3.52" rx="0.51"/>
<path fill="#7e3c03" d="
  M 57.03 30.70
  Q 57.80 30.79 57.78 31.55
  Q 57.68 31.93 57.02 32.51
  Q 57.15 31.47 56.49 31.19
  Q 56.65 30.87 57.03 30.70
  Z"
/>
<path fill="#000000" d="
  M 56.49 31.19
  Q 57.15 31.47 57.02 32.51
  Q 56.93 32.75 56.77 32.88
  Q 56.33 33.21 56.08 32.72
  Q 55.64 31.82 56.49 31.19
  Z"
/>
<path fill="#ffffff" d="
  M 25.16 33.72
  C 19.26 39.66 27.72 47.27 32.38 41.73
  Q 35.65 37.82 31.80 33.68
  Q 31.39 33.23 32.00 33.23
  L 53.50 33.26
  A 0.54 0.54 0.0 0 1 54.04 33.85
  C 51.90 55.75 19.20 55.41 17.86 33.68
  Q 17.82 33.00 18.51 33.02
  L 24.99 33.29
  Q 25.57 33.31 25.16 33.72
  Z"
/>
<path fill="#000000" d="
  M 48.11 39.17
  C 45.63 36.56 42.92 36.72 40.62 39.18
  Q 40.32 39.50 40.05 39.15
  Q 39.95 39.02 39.94 38.89
  Q 39.93 38.78 40.06 38.63
  Q 44.31 33.88 48.70 38.51
  A 0.30 0.30 0.0 0 1 48.70 38.93
  L 48.45 39.17
  Q 48.28 39.35 48.11 39.17
  Z"
/>
<path fill="#ffab00" d="
  M 54.13 50.94
  C 59.17 48.75 60.33 55.91 56.54 57.03
  C 50.39 58.85 47.87 49.98 52.30 46.46
  C 55.69 43.77 60.71 45.11 62.59 48.94
  C 67.22 58.39 56.35 64.86 48.37 60.07
  Q 47.99 59.84 48.02 59.39
  Q 48.42 54.13 46.25 49.38
  Q 46.03 48.88 46.45 48.53
  L 51.75 44.19
  Q 51.99 44.00 52.29 44.00
  L 52.73 44.00
  A 0.35 0.35 0.0 0 1 52.91 44.65
  C 47.56 47.92 47.34 58.17 54.52 58.26
  C 62.11 58.35 60.58 48.54 55.08 49.54
  Q 54.08 49.72 53.71 50.50
  Q 53.34 51.28 54.13 50.94
  Z"
/>
<circle fill="#000000" cx="35.84" cy="45.49" r="1.25"/>
<path fill="#ffab00" d="
  M 18.99 49.16
  C 10.73 46.69 12.16 64.43 23.09 55.17
  A 0.33 0.33 0.0 0 1 23.64 55.43
  L 23.53 59.52
  Q 23.51 59.98 23.11 60.20
  C 16.31 63.84 8.42 60.94 8.57 52.78
  C 8.67 47.17 16.00 41.79 21.15 46.07
  C 25.07 49.32 23.23 57.19 17.52 56.72
  C 11.90 56.25 15.34 47.83 18.89 50.47
  A 0.52 0.52 0.0 0 0 19.64 49.79
  L 19.51 49.56
  Q 19.33 49.26 18.99 49.16
  Z"
/>
<path fill="#ffffff" d="
  M 44.06 65.81
  C 39.42 71.77 31.67 71.29 27.27 65.42
  Q 22.22 58.70 26.65 49.65
  Q 26.90 49.15 27.43 49.35
  L 30.32 50.42
  Q 30.91 50.64 30.54 51.15
  C 26.11 57.32 29.84 69.34 38.82 65.02
  C 44.06 62.50 44.20 55.13 41.09 50.84
  A 0.33 0.33 0.0 0 1 41.26 50.33
  L 44.42 49.38
  Q 44.87 49.24 45.10 49.66
  Q 49.88 58.34 44.06 65.81
  Z"
/>
<path fill="#ff85b7" d="
  M 36.52 50.77
  A 0.17 0.17 0.0 0 1 36.69 50.60
  L 36.76 50.60
  A 6.70 5.46 -89.9 0 1 42.21 57.30
  L 42.21 57.78
  A 6.70 5.46 -89.9 0 1 36.74 64.48
  L 36.67 64.48
  A 0.17 0.17 0.0 0 1 36.50 64.31
  L 36.52 50.77
  Z"
/>
<path fill="#ff85b7" d="
  M 35.32 64.32
  A 0.11 0.11 0.0 0 1 35.21 64.44
  L 35.14 64.44
  A 6.29 5.62 89.5 0 1 29.47 58.20
  L 29.45 56.98
  A 6.29 5.62 89.5 0 1 35.02 50.64
  L 35.09 50.64
  A 0.11 0.11 0.0 0 1 35.20 50.74
  L 35.32 64.32
  Z"
/>
<path fill="#7e3c03" d="
  M 74.50 54.42
  Q 74.09 56.92 77.05 58.05
  Q 77.55 58.24 77.84 57.80
  Q 78.01 57.55 77.99 57.27
  L 79.84 57.87
  A 1.30 1.29 -41.2 0 1 79.67 60.37
  Q 74.07 61.42 73.78 67.40
  Q 73.77 67.59 73.59 67.53
  Q 73.47 67.49 73.34 67.45
  Q 73.27 67.42 73.27 67.35
  Q 73.31 65.63 72.61 64.41
  Q 73.74 60.99 76.50 59.62
  A 0.57 0.57 0.0 0 0 76.51 58.61
  Q 73.65 57.14 72.85 54.30
  L 73.37 51.64
  Q 73.54 50.77 73.77 51.63
  L 74.50 54.42
  Z"
/>
<path fill="#7e3c03" d="
  M 72.42 54.38
  L 68.58 58.84
  Q 68.21 59.27 68.68 59.59
  Q 71.26 61.29 72.31 64.28
  Q 71.88 66.11 71.69 68.00
  Q 71.66 68.24 71.50 68.25
  Q 71.40 68.26 71.25 68.24
  Q 71.09 68.23 71.10 68.07
  Q 71.30 62.32 66.09 60.58
  A 1.61 1.61 0.0 0 1 66.29 57.48
  Q 70.52 56.64 70.99 52.18
  A 0.31 0.31 0.0 0 1 71.59 52.10
  L 72.42 54.38
  Z"
/>
<path fill="#fcfb14" d="
  M 72.42 54.38
  Q 72.63 54.34 72.85 54.30
  Q 73.65 57.14 76.51 58.61
  A 0.57 0.57 0.0 0 1 76.50 59.62
  Q 73.74 60.99 72.61 64.41
  Q 72.46 64.35 72.31 64.28
  Q 71.26 61.29 68.68 59.59
  Q 68.21 59.27 68.58 58.84
  L 72.42 54.38
  Z"
/>
<path fill="#a65402" d="
  M 74.50 54.42
  Q 75.91 56.97 77.99 57.27
  Q 78.01 57.55 77.84 57.80
  Q 77.55 58.24 77.05 58.05
  Q 74.09 56.92 74.50 54.42
  Z"
/>
<path fill="#010101" fill-opacity="0.553" d="
  M 0.00 84.44
  L 0.32 84.71
  A 1.33 1.32 64.8 0 0 1.17 85.02
  L 90.00 85.10
  L 90.00 86.00
  L 0.00 86.00
  L 0.00 84.44
  Z"
/>
</svg>
