<?xml version="1.0" encoding="UTF-8" standalone="no"?>
<!DOCTYPE svg PUBLIC "-//W3C//DTD SVG 1.1//EN" "http://www.w3.org/Graphics/SVG/1.1/DTD/svg11.dtd">
<svg xmlns="http://www.w3.org/2000/svg" version="1.1" viewBox="0.00 0.00 90.00 86.00">
<g stroke-width="2.00" fill="none" stroke-linecap="butt">
<path stroke="#000000" stroke-opacity="0.882" vector-effect="non-scaling-stroke" d="
  M 90.00 1.04
  Q 46.28 0.95 2.56 1.03
  Q 0.01 1.03 0.00 2.68"
/>
<path stroke="#010000" stroke-opacity="0.639" vector-effect="non-scaling-stroke" d="
  M 90.00 84.98
  L 0.00 84.99"
/>
</g>
<path fill="#000000" fill-opacity="0.765" d="
  M 0.00 0.00
  L 90.00 0.00
  L 90.00 1.04
  Q 46.28 0.95 2.56 1.03
  Q 0.01 1.03 0.00 2.68
  L 0.00 0.00
  Z"
/>
<path fill="#000000" d="
  M 90.00 1.04
  L 90.00 84.98
  L 0.00 84.99
  L 0.00 2.68
  Q 0.01 1.03 2.56 1.03
  Q 46.28 0.95 90.00 1.04
  Z"
/>
<g stroke-width="2.00" fill="none" stroke-linecap="butt">
<path stroke="#c780a7" vector-effect="non-scaling-stroke" d="
  M 41.93 19.45
  L 36.47 20.51"
/>
<path stroke="#67083f" vector-effect="non-scaling-stroke" d="
  M 36.47 20.51
  Q 29.43 22.10 27.94 29.60
  A 0.59 0.59 0.0 0 1 27.06 29.99
  L 18.74 25.08
  Q 18.35 24.85 18.43 24.40
  L 19.20 20.05
  Q 19.32 19.40 18.84 18.95
  Q 15.50 15.79 10.73 17.70
  A 2.73 2.72 -20.5 0 0 9.17 21.12
  C 9.98 23.48 7.21 24.18 6.23 25.33
  C 1.83 30.48 8.93 35.62 13.96 31.17
  Q 14.36 30.82 14.81 31.09
  L 30.79 40.64"
/>
<path stroke="#c780a7" vector-effect="non-scaling-stroke" d="
  M 30.79 40.64
  Q 32.30 41.35 32.28 42.65"
/>
<path stroke="#9e8697" vector-effect="non-scaling-stroke" d="
  M 36.47 20.51
  Q 28.04 24.53 28.15 34.15
  A 0.72 0.71 66.5 0 0 29.38 34.64
  Q 31.37 32.56 30.25 30.08
  Q 29.93 29.35 30.62 29.73
  Q 32.23 30.60 31.79 32.30
  C 31.02 35.21 26.71 36.77 30.79 40.64"
/>
<path stroke="#8a8189" vector-effect="non-scaling-stroke" d="
  M 75.45 19.46
  Q 72.72 17.16 70.06 20.05
  Q 69.63 20.52 69.69 21.15
  L 69.98 23.87
  A 1.09 1.08 -19.7 0 1 69.50 24.87
  L 60.76 30.47
  Q 60.24 30.80 60.11 31.40
  L 58.81 37.38
  A 0.55 0.55 0.0 0 0 59.64 37.97
  L 72.83 29.86
  A 0.75 0.75 0.0 0 1 73.71 29.94
  Q 75.57 31.55 77.33 31.76"
/>
<path stroke="#2a0821" vector-effect="non-scaling-stroke" d="
  M 77.33 31.76
  L 78.81 31.84"
/>
<path stroke="#0b020a" vector-effect="non-scaling-stroke" d="
  M 58.13 42.52
  Q 59.75 44.68 57.54 46.29"
/>
<path stroke="#8a8189" vector-effect="non-scaling-stroke" d="
  M 56.39 44.62
  Q 57.30 43.90 55.63 42.48
  A 0.67 0.66 -52.4 0 1 55.52 41.59
  C 56.66 39.96 59.65 37.99 57.62 35.66
  C 55.85 33.62 55.34 31.74 56.79 29.23
  Q 56.99 28.88 57.30 29.15
  Q 57.44 29.27 57.48 29.45
  Q 57.53 29.67 57.33 30.03
  Q 55.94 32.58 57.80 34.88
  A 0.43 0.43 0.0 0 0 58.53 34.76
  Q 59.40 32.47 59.27 30.02"
/>
<path stroke="#c8355c" vector-effect="non-scaling-stroke" d="
  M 82.29 35.17
  Q 81.57 35.74 80.71 35.42"
/>
<path stroke="#530331" vector-effect="non-scaling-stroke" d="
  M 56.72 44.91
  Q 57.59 45.42 57.54 46.29"
/>
<path stroke="#480128" vector-effect="non-scaling-stroke" d="
  M 57.54 46.29
  Q 57.20 46.12 57.44 46.66
  Q 57.58 46.97 57.88 47.14
  C 60.67 48.72 63.17 51.14 66.52 50.71
  Q 67.20 50.63 66.84 50.05
  Q 66.00 48.73 66.08 48.04
  Q 67.21 37.93 76.12 34.41
  Q 78.78 33.36 76.03 33.23
  Q 74.62 33.17 73.61 32.31
  A 0.90 0.89 49.1 0 0 72.56 32.23
  L 58.83 40.57
  Q 58.48 40.78 58.32 41.16
  Q 57.96 42.00 58.13 42.52"
/>
<path stroke="#530331" vector-effect="non-scaling-stroke" d="
  M 58.13 42.52
  Q 56.45 43.54 56.37 41.65
  Q 56.35 41.07 56.85 40.75
  L 72.56 30.88
  Q 73.04 30.57 73.51 30.89
  Q 75.93 32.55 78.81 31.84"
/>
<path stroke="#67083f" vector-effect="non-scaling-stroke" d="
  M 78.81 31.84
  C 81.20 30.07 82.72 24.65 78.25 24.23"
/>
<path stroke="#530331" vector-effect="non-scaling-stroke" d="
  M 78.25 24.23
  L 77.10 23.19
  Q 76.71 22.84 76.76 22.32
  Q 76.87 21.15 76.03 20.75"
/>
<path stroke="#c780a7" vector-effect="non-scaling-stroke" d="
  M 76.03 20.75
  L 75.45 19.46"
/>
<path stroke="#530331" vector-effect="non-scaling-stroke" d="
  M 75.45 19.46
  Q 75.37 18.20 74.40 18.23
  C 73.10 18.27 71.77 18.15 70.49 18.33
  Q 70.05 18.40 69.93 18.82
  L 69.06 21.84
  A 0.38 0.35 42.8 0 0 69.08 22.10
  Q 69.73 23.67 68.19 24.67
  Q 62.43 28.42 60.21 29.64
  Q 60.08 29.72 59.98 29.61
  Q 59.89 29.51 59.79 29.42
  Q 59.65 29.29 59.59 29.48
  Q 59.46 29.88 59.27 30.02"
/>
<path stroke="#c780a7" vector-effect="non-scaling-stroke" d="
  M 59.27 30.02
  Q 59.19 27.08 57.93 24.53"
/>
<path stroke="#bb0369" vector-effect="non-scaling-stroke" d="
  M 56.25 17.66
  L 56.24 16.82
  Q 56.24 16.38 55.81 16.28
  L 55.06 16.11"
/>
<path stroke="#8a8189" vector-effect="non-scaling-stroke" d="
  M 76.03 20.75
  L 76.06 23.28
  Q 76.06 23.75 76.49 23.95
  Q 77.30 24.33 78.25 24.23"
/>
<path stroke="#9e8697" vector-effect="non-scaling-stroke" d="
  M 78.25 24.23
  C 81.71 26.64 81.08 30.01 77.33 31.76"
/>
<path stroke="#c8355c" vector-effect="non-scaling-stroke" d="
  M 58.80 18.49
  Q 58.72 19.01 58.59 19.05"
/>
<path stroke="#67083f" vector-effect="non-scaling-stroke" d="
  M 5.10 48.66
  Q 5.04 53.36 3.60 51.07"
/>
<path stroke="#9e3b4c" vector-effect="non-scaling-stroke" d="
  M 9.98 51.23
  Q 4.04 52.87 5.72 49.58"
/>
<path stroke="#67083f" vector-effect="non-scaling-stroke" d="
  M 10.43 53.05
  L 9.75 53.00
  Q 8.76 52.92 9.64 52.47
  L 10.92 51.81"
/>
<path stroke="#c780a7" vector-effect="non-scaling-stroke" d="
  M 15.28 56.10
  L 10.77 56.27"
/>
<path stroke="#67083f" vector-effect="non-scaling-stroke" d="
  M 10.77 56.27
  C 7.34 55.76 8.34 60.40 8.17 62.27
  Q 8.12 62.78 8.51 63.12
  Q 10.68 65.04 14.28 65.67"
/>
<path stroke="#c780a7" vector-effect="non-scaling-stroke" d="
  M 14.28 65.67
  L 14.66 68.38"
/>
<path stroke="#c780a7" vector-effect="non-scaling-stroke" d="
  M 78.32 56.28
  L 76.26 56.30"
/>
<path stroke="#c8355c" vector-effect="non-scaling-stroke" d="
  M 73.31 56.17
  Q 73.10 56.04 73.00 55.80"
/>
<path stroke="#bb0369" vector-effect="non-scaling-stroke" d="
  M 74.55 54.81
  Q 75.15 54.12 75.47 54.08"
/>
<path stroke="#9e8697" vector-effect="non-scaling-stroke" d="
  M 14.28 65.67
  Q 14.75 64.99 14.43 64.35
  Q 14.20 63.89 13.67 63.94
  C 8.42 64.45 6.84 59.32 10.77 56.27"
/>
<path stroke="#f23676" vector-effect="non-scaling-stroke" d="
  M 68.98 53.85
  L 68.46 54.21"
/>
</g>
<path fill="#90024f" d="
  M 41.93 19.45
  L 36.47 20.51
  Q 29.43 22.10 27.94 29.60
  A 0.59 0.59 0.0 0 1 27.06 29.99
  L 18.74 25.08
  Q 18.35 24.85 18.43 24.40
  L 19.20 20.05
  Q 19.32 19.40 18.84 18.95
  Q 15.50 15.79 10.73 17.70
  A 2.73 2.72 -20.5 0 0 9.17 21.12
  C 9.98 23.48 7.21 24.18 6.23 25.33
  C 1.83 30.48 8.93 35.62 13.96 31.17
  Q 14.36 30.82 14.81 31.09
  L 30.79 40.64
  Q 32.30 41.35 32.28 42.65
  L 30.66 44.10
  Q 30.10 44.61 30.07 43.85
  Q 29.99 41.83 28.57 40.93
  Q 21.95 36.75 14.97 32.60
  A 1.21 1.20 42.1 0 0 13.64 32.66
  C 8.90 36.13 2.45 32.67 4.28 26.63
  C 4.78 24.96 6.23 23.96 7.44 22.67
  A 1.18 1.16 -24.8 0 0 7.76 21.82
  C 7.48 15.38 16.29 13.50 19.31 18.52
  C 20.37 20.28 19.86 22.01 20.13 24.08
  A 0.97 0.96 11.9 0 0 20.59 24.78
  L 25.89 27.89
  A 0.86 0.85 27.5 0 0 27.10 27.52
  Q 31.33 18.35 41.60 17.67
  Q 42.12 17.64 42.52 17.32
  Q 47.81 13.06 54.73 12.94
  Q 55.73 12.92 56.10 13.53
  Q 56.45 14.10 55.78 14.15
  C 50.33 14.51 45.58 15.61 41.93 19.45
  Z"
/>
<path fill="#ff6868" d="
  M 58.80 18.49
  Q 58.72 19.01 58.59 19.05
  C 54.14 25.71 47.93 27.65 40.85 28.13
  Q 39.62 28.22 39.86 27.01
  Q 42.05 15.82 53.51 15.00
  A 0.41 0.41 0.0 0 1 53.87 15.64
  L 52.04 18.30
  A 0.76 0.76 0.0 0 0 52.85 19.47
  L 57.98 18.16
  Q 58.29 18.08 58.53 18.28
  L 58.80 18.49
  Z"
/>
<path fill="#90024f" d="
  M 82.29 35.17
  Q 81.57 35.74 80.71 35.42
  C 73.75 34.08 68.60 41.66 67.09 47.53
  A 1.00 0.99 9.5 0 0 67.98 48.77
  C 75.92 49.34 84.74 46.16 87.93 38.29
  A 0.70 0.70 0.0 0 0 87.08 37.36
  L 81.97 38.87
  A 0.47 0.47 0.0 0 1 81.49 38.10
  L 83.25 36.19
  Q 83.66 35.75 84.17 36.08
  Q 85.37 36.89 86.49 36.15
  Q 86.99 35.83 87.52 36.06
  Q 90.05 37.16 88.46 40.02
  C 84.58 47.00 78.47 49.14 70.66 50.43
  A 0.39 0.38 -27.4 0 0 70.45 51.08
  L 70.71 51.34
  A 0.37 0.37 0.0 0 1 70.56 51.96
  C 64.93 53.71 60.30 50.21 55.47 46.73
  Q 55.11 46.48 55.33 46.09
  Q 55.87 45.12 56.72 44.91
  Q 57.59 45.42 57.54 46.29
  Q 57.20 46.12 57.44 46.66
  Q 57.58 46.97 57.88 47.14
  C 60.67 48.72 63.17 51.14 66.52 50.71
  Q 67.20 50.63 66.84 50.05
  Q 66.00 48.73 66.08 48.04
  Q 67.21 37.93 76.12 34.41
  Q 78.78 33.36 76.03 33.23
  Q 74.62 33.17 73.61 32.31
  A 0.90 0.89 49.1 0 0 72.56 32.23
  L 58.83 40.57
  Q 58.48 40.78 58.32 41.16
  Q 57.96 42.00 58.13 42.52
  Q 56.45 43.54 56.37 41.65
  Q 56.35 41.07 56.85 40.75
  L 72.56 30.88
  Q 73.04 30.57 73.51 30.89
  Q 75.93 32.55 78.81 31.84
  C 81.20 30.07 82.72 24.65 78.25 24.23
  L 77.10 23.19
  Q 76.71 22.84 76.76 22.32
  Q 76.87 21.15 76.03 20.75
  L 75.45 19.46
  Q 75.37 18.20 74.40 18.23
  C 73.10 18.27 71.77 18.15 70.49 18.33
  Q 70.05 18.40 69.93 18.82
  L 69.06 21.84
  A 0.38 0.35 42.8 0 0 69.08 22.10
  Q 69.73 23.67 68.19 24.67
  Q 62.43 28.42 60.21 29.64
  Q 60.08 29.72 59.98 29.61
  Q 59.89 29.51 59.79 29.42
  Q 59.65 29.29 59.59 29.48
  Q 59.46 29.88 59.27 30.02
  Q 59.19 27.08 57.93 24.53
  Q 58.38 23.75 57.57 22.67
  A 0.69 0.69 0.0 0 1 57.63 21.78
  Q 59.22 20.13 58.59 19.05
  Q 58.72 19.01 58.80 18.49
  Q 59.81 18.59 59.99 17.64
  A 0.71 0.71 0.0 0 0 59.10 16.83
  L 56.25 17.66
  L 56.24 16.82
  Q 56.24 16.38 55.81 16.28
  L 55.06 16.11
  Q 56.76 15.48 59.89 16.12
  A 1.53 1.52 -67.3 0 1 60.85 18.47
  Q 57.80 23.01 61.27 27.51
  Q 61.56 27.88 61.96 27.62
  L 67.30 23.95
  Q 67.79 23.62 67.71 23.03
  C 66.69 15.39 77.50 13.73 78.12 21.72
  A 0.86 0.86 0.0 0 0 78.65 22.45
  C 83.41 24.44 84.01 31.32 78.56 33.05
  Q 78.34 33.12 78.29 33.34
  Q 78.19 33.72 78.58 33.70
  L 83.90 33.44
  A 0.63 0.63 0.0 0 1 84.10 34.67
  L 82.29 35.17
  Z"
/>
<path fill="#e50383" d="
  M 55.06 16.11
  L 55.81 16.28
  Q 56.24 16.38 56.24 16.82
  L 56.25 17.66
  Q 54.80 18.48 53.71 18.19
  Q 52.92 17.98 53.53 17.45
  L 55.06 16.11
  Z"
/>
<path fill="#3d0d2f" d="
  M 36.47 20.51
  Q 28.04 24.53 28.15 34.15
  A 0.72 0.71 66.5 0 0 29.38 34.64
  Q 31.37 32.56 30.25 30.08
  Q 29.93 29.35 30.62 29.73
  Q 32.23 30.60 31.79 32.30
  C 31.02 35.21 26.71 36.77 30.79 40.64
  L 14.81 31.09
  Q 14.36 30.82 13.96 31.17
  C 8.93 35.62 1.83 30.48 6.23 25.33
  C 7.21 24.18 9.98 23.48 9.17 21.12
  A 2.73 2.72 -20.5 0 1 10.73 17.70
  Q 15.50 15.79 18.84 18.95
  Q 19.32 19.40 19.20 20.05
  L 18.43 24.40
  Q 18.35 24.85 18.74 25.08
  L 27.06 29.99
  A 0.59 0.59 0.0 0 0 27.94 29.60
  Q 29.43 22.10 36.47 20.51
  Z"
/>
<path fill="#fefefe" d="
  M 17.28 25.11
  L 26.83 30.80
  A 0.80 0.78 11.5 0 1 27.20 31.34
  L 28.23 37.03
  A 0.67 0.66 -79.4 0 1 27.23 37.72
  L 14.70 30.02
  A 0.71 0.71 0.0 0 0 13.84 30.12
  C 7.19 36.52 2.22 26.11 9.64 24.07
  Q 10.14 23.93 10.10 23.42
  C 9.97 21.96 9.65 20.26 10.69 19.10
  C 12.80 16.74 17.92 17.33 18.23 21.16
  C 18.34 22.48 17.65 23.25 17.08 24.46
  Q 16.89 24.87 17.28 25.11
  Z"
/>
<path fill="#160313" d="
  M 75.45 19.46
  Q 72.72 17.16 70.06 20.05
  Q 69.63 20.52 69.69 21.15
  L 69.98 23.87
  A 1.09 1.08 -19.7 0 1 69.50 24.87
  L 60.76 30.47
  Q 60.24 30.80 60.11 31.40
  L 58.81 37.38
  A 0.55 0.55 0.0 0 0 59.64 37.97
  L 72.83 29.86
  A 0.75 0.75 0.0 0 1 73.71 29.94
  Q 75.57 31.55 77.33 31.76
  L 78.81 31.84
  Q 75.93 32.55 73.51 30.89
  Q 73.04 30.57 72.56 30.88
  L 56.85 40.75
  Q 56.35 41.07 56.37 41.65
  Q 56.45 43.54 58.13 42.52
  Q 59.75 44.68 57.54 46.29
  Q 57.59 45.42 56.72 44.91
  Q 55.94 44.41 56.39 44.62
  Q 57.30 43.90 55.63 42.48
  A 0.67 0.66 -52.4 0 1 55.52 41.59
  C 56.66 39.96 59.65 37.99 57.62 35.66
  C 55.85 33.62 55.34 31.74 56.79 29.23
  Q 56.99 28.88 57.30 29.15
  Q 57.44 29.27 57.48 29.45
  Q 57.53 29.67 57.33 30.03
  Q 55.94 32.58 57.80 34.88
  A 0.43 0.43 0.0 0 0 58.53 34.76
  Q 59.40 32.47 59.27 30.02
  Q 59.46 29.88 59.59 29.48
  Q 59.65 29.29 59.79 29.42
  Q 59.89 29.51 59.98 29.61
  Q 60.08 29.72 60.21 29.64
  Q 62.43 28.42 68.19 24.67
  Q 69.73 23.67 69.08 22.10
  A 0.38 0.35 42.8 0 1 69.06 21.84
  L 69.93 18.82
  Q 70.05 18.40 70.49 18.33
  C 71.77 18.15 73.10 18.27 74.40 18.23
  Q 75.37 18.20 75.45 19.46
  Z"
/>
<path fill="#fefefe" d="
  M 75.45 19.46
  L 76.03 20.75
  L 76.06 23.28
  Q 76.06 23.75 76.49 23.95
  Q 77.30 24.33 78.25 24.23
  C 81.71 26.64 81.08 30.01 77.33 31.76
  Q 75.57 31.55 73.71 29.94
  A 0.75 0.75 0.0 0 0 72.83 29.86
  L 59.64 37.97
  A 0.55 0.55 0.0 0 1 58.81 37.38
  L 60.11 31.40
  Q 60.24 30.80 60.76 30.47
  L 69.50 24.87
  A 1.09 1.08 -19.7 0 0 69.98 23.87
  L 69.69 21.15
  Q 69.63 20.52 70.06 20.05
  Q 72.72 17.16 75.45 19.46
  Z"
/>
<path fill="#fefefe" d="
  M 41.93 19.45
  Q 39.09 23.74 38.85 28.44
  Q 38.83 28.93 39.32 28.94
  Q 48.82 29.13 56.32 23.53
  Q 56.77 23.20 57.13 23.61
  L 57.93 24.53
  Q 59.19 27.08 59.27 30.02
  Q 59.40 32.47 58.53 34.76
  A 0.43 0.43 0.0 0 1 57.80 34.88
  Q 55.94 32.58 57.33 30.03
  Q 57.53 29.67 57.48 29.45
  Q 57.44 29.27 57.30 29.15
  Q 56.99 28.88 56.79 29.23
  C 55.34 31.74 55.85 33.62 57.62 35.66
  C 59.65 37.99 56.66 39.96 55.52 41.59
  A 0.67 0.66 -52.4 0 0 55.63 42.48
  Q 57.30 43.90 56.39 44.62
  L 54.13 44.28
  A 0.35 0.35 0.0 0 0 53.77 44.79
  L 54.27 45.77
  Q 54.88 46.96 53.54 46.97
  L 34.77 47.01
  A 0.56 0.56 0.0 0 1 34.27 46.20
  L 34.72 45.31
  A 0.40 0.39 8.8 0 0 34.30 44.74
  L 32.29 45.06
  Q 31.55 45.18 31.76 44.45
  L 32.28 42.65
  Q 32.30 41.35 30.79 40.64
  C 26.71 36.77 31.02 35.21 31.79 32.30
  Q 32.23 30.60 30.62 29.73
  Q 29.93 29.35 30.25 30.08
  Q 31.37 32.56 29.38 34.64
  A 0.72 0.71 66.5 0 1 28.15 34.15
  Q 28.04 24.53 36.47 20.51
  L 41.93 19.45
  Z"
/>
<path fill="#160313" d="
  M 76.03 20.75
  Q 76.87 21.15 76.76 22.32
  Q 76.71 22.84 77.10 23.19
  L 78.25 24.23
  Q 77.30 24.33 76.49 23.95
  Q 76.06 23.75 76.06 23.28
  L 76.03 20.75
  Z"
/>
<path fill="#3d0d2f" d="
  M 78.25 24.23
  C 82.72 24.65 81.20 30.07 78.81 31.84
  L 77.33 31.76
  C 81.08 30.01 81.71 26.64 78.25 24.23
  Z"
/>
<path fill="#000000" d="
  M 57.54 46.29
  Q 59.75 44.68 58.13 42.52
  Q 57.96 42.00 58.32 41.16
  Q 58.48 40.78 58.83 40.57
  L 72.56 32.23
  A 0.90 0.89 49.1 0 1 73.61 32.31
  Q 74.62 33.17 76.03 33.23
  Q 78.78 33.36 76.12 34.41
  Q 67.21 37.93 66.08 48.04
  Q 66.00 48.73 66.84 50.05
  Q 67.20 50.63 66.52 50.71
  C 63.17 51.14 60.67 48.72 57.88 47.14
  Q 57.58 46.97 57.44 46.66
  Q 57.20 46.12 57.54 46.29
  Z"
/>
<circle fill="#000000" cx="37.29" cy="37.37" r="4.61"/>
<circle fill="#000000" cx="50.61" cy="37.34" r="4.57"/>
<path fill="#ff6868" d="
  M 82.29 35.17
  Q 82.04 36.95 80.36 38.38
  A 0.66 0.66 0.0 0 0 80.79 39.54
  Q 83.81 39.50 86.47 38.19
  A 0.44 0.44 0.0 0 1 87.05 38.78
  C 83.50 45.68 76.37 48.08 68.89 48.33
  A 0.68 0.68 0.0 0 1 68.20 47.55
  Q 69.92 36.75 80.71 35.42
  Q 81.57 35.74 82.29 35.17
  Z"
/>
<path fill="#90024f" d="
  M 5.10 48.66
  Q 5.04 53.36 3.60 51.07
  C 4.14 41.88 12.05 36.12 21.06 37.12
  Q 21.62 37.18 21.24 37.60
  Q 20.82 38.07 20.05 38.06
  Q 8.48 37.93 5.10 48.66
  Z"
/>
<path fill="#ff6868" d="
  M 9.98 51.23
  Q 4.04 52.87 5.72 49.58
  Q 8.23 39.28 18.84 38.91
  A 0.48 0.48 0.0 0 1 19.25 39.66
  L 17.41 42.38
  A 0.56 0.56 0.0 0 0 18.01 43.24
  L 23.18 41.92
  A 0.72 0.71 8.7 0 1 23.97 42.99
  Q 19.35 50.38 9.98 51.23
  Z"
/>
<path fill="#e50383" d="
  M 18.73 41.76
  L 20.56 39.78
  Q 21.00 39.31 21.61 39.50
  L 22.50 39.79
  Q 24.83 40.52 22.50 41.28
  L 19.13 42.38
  A 0.38 0.38 0.0 0 1 18.73 41.76
  Z"
/>
<path fill="#000000" d="
  M 43.96 43.70
  L 43.20 44.75
  A 0.66 0.66 0.0 0 1 42.01 44.26
  Q 42.31 42.28 43.90 41.00
  Q 44.35 40.63 44.79 41.01
  Q 46.44 42.38 46.52 44.58
  A 0.48 0.48 0.0 0 1 45.69 44.92
  L 44.59 43.67
  Q 44.26 43.29 43.96 43.70
  Z"
/>
<path fill="#90024f" d="
  M 10.43 53.05
  L 9.75 53.00
  Q 8.76 52.92 9.64 52.47
  L 10.92 51.81
  Q 21.40 50.39 25.45 41.56
  Q 25.70 41.01 26.11 41.46
  Q 26.26 41.63 26.32 42.00
  Q 26.37 42.32 26.21 42.64
  Q 21.47 51.90 10.43 53.05
  Z"
/>
<path fill="#90024f" d="
  M 15.28 56.10
  L 10.77 56.27
  C 7.34 55.76 8.34 60.40 8.17 62.27
  Q 8.12 62.78 8.51 63.12
  Q 10.68 65.04 14.28 65.67
  L 14.66 68.38
  Q 14.16 68.41 14.25 69.24
  A 1.06 1.05 12.8 0 0 14.74 70.01
  Q 18.03 72.04 20.89 70.15
  C 23.88 68.17 23.43 64.92 22.82 61.73
  A 0.26 0.24 -23.4 0 1 22.94 61.46
  L 32.18 55.80
  Q 32.60 55.54 32.99 55.85
  Q 33.34 56.15 33.26 56.66
  Q 33.19 57.13 33.36 57.57
  C 37.07 66.95 48.77 68.69 54.57 60.21
  Q 54.71 59.99 54.85 60.21
  L 55.01 60.50
  Q 55.06 60.58 55.02 60.67
  Q 53.98 62.78 53.77 65.11
  Q 53.66 66.38 54.92 66.19
  L 65.10 64.72
  Q 65.39 64.68 65.38 64.97
  C 65.15 74.99 76.93 70.82 75.61 65.86
  Q 75.48 65.36 75.86 65.01
  Q 76.26 64.64 76.84 64.72
  Q 77.34 64.79 77.81 64.60
  C 79.29 63.97 80.66 63.46 81.28 61.84
  Q 83.23 56.74 78.32 56.28
  L 76.26 56.30
  L 73.31 56.17
  Q 73.10 56.04 73.00 55.80
  L 74.55 54.81
  Q 75.15 54.12 75.47 54.08
  C 84.36 53.91 85.89 63.90 77.75 65.46
  A 0.94 0.92 4.4 0 0 77.05 66.05
  C 76.38 67.83 75.89 69.77 74.40 70.91
  C 70.75 73.72 64.86 72.27 64.49 67.17
  A 1.12 1.11 79.2 0 0 63.04 66.18
  Q 58.92 67.48 54.57 67.31
  Q 53.07 67.25 52.52 64.58
  A 0.19 0.19 0.0 0 0 52.25 64.45
  Q 39.87 70.64 32.70 59.48
  Q 32.42 59.04 32.43 58.52
  Q 32.43 57.80 31.85 57.54
  Q 31.39 57.33 30.96 57.59
  L 24.39 61.53
  Q 23.91 61.82 23.97 62.37
  C 24.14 64.15 24.81 65.87 24.23 67.55
  C 22.23 73.34 12.85 74.01 12.29 66.44
  A 0.73 0.73 0.0 0 0 11.71 65.78
  C 0.98 63.66 8.94 49.65 16.71 54.87
  A 2.12 2.11 45.1 0 0 19.05 54.88
  L 32.58 46.10
  Q 32.90 45.89 33.10 46.22
  L 33.24 46.46
  Q 33.39 46.71 33.14 46.87
  L 18.64 56.35
  A 1.22 1.21 -56.2 0 1 17.75 56.53
  L 15.28 56.10
  Z"
/>
<path fill="#fefefe" d="
  M 14.66 68.38
  L 14.28 65.67
  Q 14.75 64.99 14.43 64.35
  Q 14.20 63.89 13.67 63.94
  C 8.42 64.45 6.84 59.32 10.77 56.27
  L 15.28 56.10
  L 17.51 57.38
  Q 17.97 57.64 18.42 57.36
  L 33.12 48.02
  A 0.40 0.39 78.5 0 1 33.72 48.42
  L 32.79 54.07
  A 0.93 0.92 79.2 0 1 32.36 54.71
  L 22.02 60.99
  Q 21.53 61.29 21.76 61.83
  C 24.14 67.44 19.40 73.47 14.66 68.38
  Z"
/>
<path fill="#fefefe" d="
  M 38.95 48.24
  L 38.62 50.89
  A 0.69 0.68 -86.7 0 1 37.94 51.50
  L 34.78 51.50
  Q 34.21 51.50 34.28 50.93
  Q 34.44 49.66 34.86 48.38
  A 2.30 1.78 -39.7 0 1 38.95 48.24
  Z"
/>
<rect fill="#fefefe" x="-2.22" y="-1.77" transform="translate(41.92,49.71) rotate(0.6)" width="4.44" height="3.54" rx="0.50"/>
<path fill="#fefefe" d="
  M 45.17 48.52
  A 0.66 0.66 0.0 0 1 45.83 47.86
  L 48.20 47.86
  A 1.21 0.99 0.1 0 1 49.41 48.85
  L 49.41 50.53
  A 1.21 0.99 0.1 0 1 48.20 51.52
  L 45.83 51.52
  A 0.66 0.66 0.0 0 1 45.17 50.86
  L 45.17 48.52
  Z"
/>
<path fill="#fefefe" d="
  M 54.26 48.40
  L 54.69 50.90
  A 0.52 0.52 0.0 0 1 54.17 51.51
  L 51.12 51.48
  A 0.52 0.52 0.0 0 1 50.61 51.06
  L 50.12 48.39
  A 0.52 0.52 0.0 0 1 50.66 47.78
  L 53.78 47.97
  A 0.52 0.52 0.0 0 1 54.26 48.40
  Z"
/>
<path fill="#fefefe" d="
  M 76.26 56.30
  L 78.32 56.28
  Q 81.79 57.48 81.21 60.26
  C 80.56 63.41 77.91 63.55 75.35 64.08
  Q 74.90 64.18 74.95 64.65
  C 75.97 73.38 62.46 71.45 67.19 62.94
  Q 67.51 62.37 66.95 62.03
  L 56.64 55.69
  Q 56.29 55.47 56.22 55.05
  L 55.17 48.45
  A 0.39 0.39 0.0 0 1 55.76 48.05
  L 72.06 57.87
  A 0.79 0.78 47.9 0 0 72.82 57.91
  L 76.26 56.30
  Z"
/>
<path fill="#3d0d2f" d="
  M 5.10 48.66
  Q 5.29 49.24 5.72 49.58
  Q 4.04 52.87 9.98 51.23
  Q 9.80 51.83 10.92 51.81
  L 9.64 52.47
  Q 8.76 52.92 9.75 53.00
  L 10.43 53.05
  Q 7.91 54.37 5.26 53.94
  Q 4.77 53.85 4.44 53.47
  Q 3.37 52.24 3.60 51.07
  Q 5.04 53.36 5.10 48.66
  Z"
/>
<rect fill="#fefefe" x="-2.13" y="-1.99" transform="translate(36.14,54.24) rotate(1.0)" width="4.26" height="3.98" rx="0.62"/>
<rect fill="#fefefe" x="-2.50" y="-2.00" transform="translate(41.77,54.26) rotate(0.6)" width="5.00" height="4.00" rx="0.63"/>
<rect fill="#fefefe" x="-2.29" y="-1.99" transform="translate(47.54,54.26) rotate(-0.8)" width="4.58" height="3.98" rx="0.45"/>
<rect fill="#fefefe" x="-2.11" y="-1.97" transform="translate(52.88,54.26) rotate(-1.8)" width="4.22" height="3.94" rx="0.65"/>
<path fill="#ff6868" d="
  M 68.98 53.85
  L 68.46 54.21
  Q 67.43 54.42 66.77 54.00
  A 0.66 0.66 0.0 0 1 66.93 52.81
  Q 67.94 52.50 68.98 53.85
  Z"
/>
<path fill="#e50383" d="
  M 75.47 54.08
  Q 75.15 54.12 74.55 54.81
  Q 74.57 54.63 74.51 54.49
  A 0.44 0.43 68.9 0 0 73.97 54.25
  C 71.83 54.98 69.69 56.34 68.46 54.21
  L 68.98 53.85
  L 70.30 53.11
  Q 70.78 52.85 71.13 53.27
  Q 71.61 53.88 72.31 53.62
  C 73.44 53.20 74.82 52.79 75.47 54.08
  Z"
/>
<path fill="#ff6868" d="
  M 73.00 55.80
  Q 73.10 56.04 73.31 56.17
  Q 72.88 56.93 72.52 57.05
  A 0.78 0.65 -10.7 0 1 71.49 56.48
  Q 71.51 55.47 73.00 55.80
  Z"
/>
<path fill="#3d0d2f" d="
  M 10.77 56.27
  C 6.84 59.32 8.42 64.45 13.67 63.94
  Q 14.20 63.89 14.43 64.35
  Q 14.75 64.99 14.28 65.67
  Q 10.68 65.04 8.51 63.12
  Q 8.12 62.78 8.17 62.27
  C 8.34 60.40 7.34 55.76 10.77 56.27
  Z"
/>
<path fill="#fefefe" d="
  M 34.45 57.20
  L 54.51 57.28
  Q 55.03 57.28 54.82 57.75
  C 50.70 67.03 37.98 67.19 34.21 57.54
  A 0.25 0.25 0.0 0 1 34.45 57.20
  Z"
/>
<path fill="#ff6868" d="
  M 65.74 62.29
  A 0.58 0.58 0.0 0 1 65.64 63.33
  Q 60.60 65.22 55.18 65.47
  A 0.70 0.70 0.0 0 1 54.49 64.54
  L 56.89 57.73
  A 0.61 0.60 -64.5 0 1 57.78 57.41
  L 65.74 62.29
  Z"
/>
<path fill="#050200" fill-opacity="0.275" d="
  M 90.00 84.98
  L 90.00 86.00
  L 0.00 86.00
  L 0.00 84.99
  L 90.00 84.98
  Z
  M 89.26 85.50
  A 0.25 0.25 0.0 0 1 89.01 85.75
  L 0.75 85.75
  A 0.25 0.25 0.0 0 1 0.50 85.50
  L 0.50 85.50
  A 0.25 0.25 0.0 0 1 0.75 85.25
  L 89.01 85.25
  A 0.25 0.25 0.0 0 1 89.26 85.50
  L 89.26 85.50
  Z"
/>
<rect fill="#030200" fill-opacity="0.075" x="0.50" y="85.25" width="88.76" height="0.50" rx="0.25"/>
</svg>
